<?xml version="1.0" standalone="no"?>
<!DOCTYPE svg PUBLIC "-//W3C//DTD SVG 20010904//EN"
 "http://www.w3.org/TR/2001/REC-SVG-20010904/DTD/svg10.dtd">
<svg version="1.0" xmlns="http://www.w3.org/2000/svg"
 width="280.000000pt" height="280.000000pt" viewBox="0 0 280.000000 280.000000"
 preserveAspectRatio="xMidYMid meet">
<metadata>
Created by potrace 1.11, written by Peter Selinger 2001-2013
</metadata>
<g transform="translate(0.000000,280.000000) scale(0.100000,-0.100000)"
fill="#000000" stroke="none">
<path d="M1279 2796 c-2 -2 -31 -6 -64 -10 -124 -12 -272 -56 -411 -122 -428
-201 -725 -604 -791 -1074 -10 -66 -9 -317 0 -380 61 -408 280 -754 617 -977
233 -153 470 -226 745 -227 83 -1 177 2 210 6 132 16 342 81 431 133 24 14 46
25 49 25 13 -1 128 75 206 137 235 185 402 442 484 746 31 114 40 196 40 357
-1 148 -8 211 -40 334 -86 339 -293 630 -585 823 -228 150 -457 221 -736 229
-82 2 -152 3 -155 0z"/>
</g>
</svg>
