<?xml version="1.0" standalone="no"?>
<!DOCTYPE svg PUBLIC "-//W3C//DTD SVG 20010904//EN"
 "http://www.w3.org/TR/2001/REC-SVG-20010904/DTD/svg10.dtd">
<svg version="1.0" xmlns="http://www.w3.org/2000/svg"
 width="260.000000pt" height="260.000000pt" viewBox="0 0 260.000000 260.000000"
 preserveAspectRatio="xMidYMid meet">
<metadata>
Created by potrace 1.11, written by Peter Selinger 2001-2013
</metadata>
<g transform="translate(0.000000,260.000000) scale(0.100000,-0.100000)"
fill="#000000" stroke="none">
<path d="M1250 2589 c-19 -5 -48 -11 -65 -14 -16 -3 -46 -10 -65 -15 -19 -5
-46 -11 -60 -14 -14 -2 -77 -16 -140 -30 -63 -15 -125 -28 -138 -31 -12 -2
-30 -6 -40 -9 -9 -3 -28 -7 -42 -10 -14 -2 -77 -16 -140 -30 -129 -30 -143
-33 -185 -41 -65 -12 -96 -28 -117 -58 l-23 -32 0 -635 c-1 -684 1 -720 52
-847 35 -87 93 -175 161 -242 60 -59 824 -575 852 -575 25 0 789 515 845 569
115 112 180 232 211 395 12 60 11 1312 0 1340 -11 26 -19 36 -47 57 -13 11
-996 235 -1016 232 -5 -1 -24 -5 -43 -10z"/>
</g>
</svg>
