<svg width="759" height="535" viewBox="0 0 759 535" fill="none" xmlns="http://www.w3.org/2000/svg">
<g filter="url(#filter0_d)">
<path fill-rule="evenodd" clip-rule="evenodd" d="M291.376 8.59489L324.212 33.9018L278.735 92.9087L245.899 67.6019L291.376 8.59489ZM247.909 74.9398C245.572 71.6035 244.849 68.964 245.899 67.6018L262.317 80.2552L278.735 92.9086C277.685 94.2709 274.949 94.2442 271.127 92.8344C267.306 91.4247 262.713 88.7474 258.359 85.3915C254.004 82.0356 250.245 78.276 247.909 74.9398Z" fill="black"/>
<path fill-rule="evenodd" clip-rule="evenodd" d="M291.376 8.59489L324.212 33.9018L278.735 92.9087L245.899 67.6019L291.376 8.59489ZM247.909 74.9398C245.572 71.6035 244.849 68.964 245.899 67.6018L262.317 80.2552L278.735 92.9086C277.685 94.2709 274.949 94.2442 271.127 92.8344C267.306 91.4247 262.713 88.7474 258.359 85.3915C254.004 82.0356 250.245 78.276 247.909 74.9398Z" fill="url(#paint0_linear)" fill-opacity="0.5"/>
</g>
<ellipse rx="20.7283" ry="6.48472" transform="matrix(-0.792061 -0.610442 -0.610442 0.792061 307.794 21.2482)" fill="black"/>
<ellipse rx="20.7283" ry="6.48472" transform="matrix(-0.792061 -0.610442 -0.610442 0.792061 307.794 21.2482)" fill="url(#paint1_radial)"/>
<g filter="url(#filter1_d)">
<circle cx="565.337" cy="281.633" r="113.863" fill="black"/>
<circle cx="565.337" cy="281.633" r="113.863" fill="url(#paint2_linear)" fill-opacity="0.5"/>
<circle cx="565.337" cy="281.633" r="113.863" fill="url(#paint3_radial)" fill-opacity="0.5"/>
</g>
<g filter="url(#filter2_f)">
<ellipse cx="351.177" cy="474.911" rx="180.262" ry="4.20741" fill="black"/>
</g>
<path d="M457.649 49.8914L113.642 142.068C108.671 143.4 105.722 148.509 107.054 153.479L170.931 391.872C172.263 396.843 177.372 399.792 182.342 398.46L526.349 306.284C531.319 304.952 534.269 299.843 532.937 294.873L469.06 56.4797C467.728 51.5092 462.619 48.5595 457.649 49.8914Z" fill="url(#paint4_linear)"/>
<path d="M457.649 49.8914L113.642 142.068C108.671 143.4 105.722 148.509 107.054 153.479L170.931 391.872C172.263 396.843 177.372 399.792 182.342 398.46L526.349 306.284C531.319 304.952 534.269 299.843 532.937 294.873L469.06 56.4797C467.728 51.5092 462.619 48.5595 457.649 49.8914Z" fill="url(#paint5_linear)"/>
<path d="M457.649 49.8914L113.642 142.068C108.671 143.4 105.722 148.509 107.054 153.479L170.931 391.872C172.263 396.843 177.372 399.792 182.342 398.46L526.349 306.284C531.319 304.952 534.269 299.843 532.937 294.873L469.06 56.4797C467.728 51.5092 462.619 48.5595 457.649 49.8914Z" stroke="#333333" stroke-width="0.745379"/>
<path d="M523.33 288.666L523.69 288.569L523.594 288.209L462.531 60.3197C461.838 57.7351 459.182 56.2012 456.597 56.8938L118.053 147.606C115.468 148.299 113.934 150.956 114.627 153.54L175.69 381.43L175.786 381.79L176.146 381.694L523.33 288.666Z" fill="black" stroke="#444444" stroke-width="0.745379"/>
<path d="M115.605 412.266L591.047 284.871L593.336 293.413C593.843 295.305 593.061 297.307 591.389 298.327C589.205 299.658 586.154 301.476 583.775 302.725C579.109 305.176 559.622 311.523 559.622 311.523L159.762 418.665C159.367 418.771 158.983 418.877 158.588 418.986C155.451 419.853 140.276 423.914 129.866 424.335C127.494 424.431 124.383 424.378 122.064 424.311C120.118 424.255 118.458 422.916 117.955 421.036L115.605 412.266Z" fill="url(#paint6_linear)"/>
<path d="M115.605 412.266L591.047 284.871L593.336 293.413C593.843 295.305 593.061 297.307 591.389 298.327C589.205 299.658 586.154 301.476 583.775 302.725C579.109 305.176 559.622 311.523 559.622 311.523L159.762 418.665C159.367 418.771 158.983 418.877 158.588 418.986C155.451 419.853 140.276 423.914 129.866 424.335C127.494 424.431 124.383 424.378 122.064 424.311C120.118 424.255 118.458 422.916 117.955 421.036L115.605 412.266Z" fill="url(#paint7_linear)" fill-opacity="0.3"/>
<path d="M317.715 359.106L389.435 339.889V339.889C390.628 344.342 387.985 348.918 383.533 350.111L327.937 365.008C323.485 366.201 318.908 363.559 317.715 359.106V359.106Z" fill="#C4C4C4"/>
<path d="M317.715 359.106L389.435 339.889V339.889C390.628 344.342 387.985 348.918 383.533 350.111L327.937 365.008C323.485 366.201 318.908 363.559 317.715 359.106V359.106Z" fill="url(#paint8_linear)"/>
<path d="M317.715 359.106L389.435 339.889V339.889C390.628 344.342 387.985 348.918 383.533 350.111L327.937 365.008C323.485 366.201 318.908 363.559 317.715 359.106V359.106Z" fill="url(#paint9_linear)"/>
<g filter="url(#filter3_d)">
<circle cx="502.226" cy="50.7519" r="50.7519" fill="black"/>
<circle cx="502.226" cy="50.7519" r="50.7519" fill="url(#paint10_linear)" fill-opacity="0.5"/>
<circle cx="502.226" cy="50.7519" r="50.7519" fill="url(#paint11_radial)" fill-opacity="0.5"/>
</g>
<g filter="url(#filter4_d)">
<circle cx="126.189" cy="352.744" r="36.0259" fill="black"/>
<circle cx="126.189" cy="352.744" r="36.0259" fill="url(#paint12_linear)" fill-opacity="0.5"/>
<circle cx="126.189" cy="352.744" r="36.0259" fill="url(#paint13_radial)" fill-opacity="0.5"/>
</g>
<g filter="url(#filter5_d)">
<circle cx="95.1074" cy="101.241" r="68.1074" fill="black"/>
<circle cx="95.1074" cy="101.241" r="68.1074" fill="url(#paint14_linear)" fill-opacity="0.5"/>
<circle cx="95.1074" cy="101.241" r="68.1074" fill="url(#paint15_radial)" fill-opacity="0.5"/>
</g>
<g filter="url(#filter6_d)">
<path fill-rule="evenodd" clip-rule="evenodd" d="M305.26 326.655L264.852 350.352L307.435 422.965L307.434 422.966C308.417 424.642 311.488 425.001 315.972 423.965C320.456 422.928 325.986 420.58 331.344 417.438C336.703 414.296 341.451 410.616 344.545 407.209C347.639 403.802 348.825 400.946 347.842 399.269L347.843 399.269L305.26 326.655Z" fill="black"/>
<path fill-rule="evenodd" clip-rule="evenodd" d="M305.26 326.655L264.852 350.352L307.435 422.965L307.434 422.966C308.417 424.642 311.488 425.001 315.972 423.965C320.456 422.928 325.986 420.58 331.344 417.438C336.703 414.296 341.451 410.616 344.545 407.209C347.639 403.802 348.825 400.946 347.842 399.269L347.843 399.269L305.26 326.655Z" fill="url(#paint16_linear)" fill-opacity="0.4"/>
</g>
<ellipse cx="285.056" cy="338.504" rx="23.4218" ry="7.32736" transform="rotate(-30.3887 285.056 338.504)" fill="black"/>
<ellipse cx="285.056" cy="338.504" rx="23.4218" ry="7.32736" transform="rotate(-30.3887 285.056 338.504)" fill="url(#paint17_radial)" fill-opacity="0.5"/>
<defs>
<filter id="filter0_d" x="215.644" y="8.59476" width="187.457" height="194.635" filterUnits="userSpaceOnUse" color-interpolation-filters="sRGB">
<feFlood flood-opacity="0" result="BackgroundImageFix"/>
<feColorMatrix in="SourceAlpha" type="matrix" values="0 0 0 0 0 0 0 0 0 0 0 0 0 0 0 0 0 0 127 0"/>
<feOffset dx="26.2963" dy="52.5926"/>
<feGaussianBlur stdDeviation="26.2963"/>
<feColorMatrix type="matrix" values="0 0 0 0 0 0 0 0 0 0 0 0 0 0 0 0 0 0 0.3 0"/>
<feBlend mode="normal" in2="BackgroundImageFix" result="effect1_dropShadow"/>
<feBlend mode="normal" in="SourceGraphic" in2="effect1_dropShadow" result="shape"/>
</filter>
<filter id="filter1_d" x="425.178" y="167.77" width="332.911" height="332.911" filterUnits="userSpaceOnUse" color-interpolation-filters="sRGB">
<feFlood flood-opacity="0" result="BackgroundImageFix"/>
<feColorMatrix in="SourceAlpha" type="matrix" values="0 0 0 0 0 0 0 0 0 0 0 0 0 0 0 0 0 0 127 0"/>
<feOffset dx="26.2963" dy="52.5926"/>
<feGaussianBlur stdDeviation="26.2963"/>
<feColorMatrix type="matrix" values="0 0 0 0 0 0 0 0 0 0 0 0 0 0 0 0 0 0 0.3 0"/>
<feBlend mode="normal" in2="BackgroundImageFix" result="effect1_dropShadow"/>
<feBlend mode="normal" in="SourceGraphic" in2="effect1_dropShadow" result="shape"/>
</filter>
<filter id="filter2_f" x="137.255" y="437.044" width="427.843" height="75.7333" filterUnits="userSpaceOnUse" color-interpolation-filters="sRGB">
<feFlood flood-opacity="0" result="BackgroundImageFix"/>
<feBlend mode="normal" in="SourceGraphic" in2="BackgroundImageFix" result="shape"/>
<feGaussianBlur stdDeviation="16.8296" result="effect1_foregroundBlur"/>
</filter>
<filter id="filter3_d" x="425.178" y="0" width="206.689" height="206.689" filterUnits="userSpaceOnUse" color-interpolation-filters="sRGB">
<feFlood flood-opacity="0" result="BackgroundImageFix"/>
<feColorMatrix in="SourceAlpha" type="matrix" values="0 0 0 0 0 0 0 0 0 0 0 0 0 0 0 0 0 0 127 0"/>
<feOffset dx="26.2963" dy="52.5926"/>
<feGaussianBlur stdDeviation="26.2963"/>
<feColorMatrix type="matrix" values="0 0 0 0 0 0 0 0 0 0 0 0 0 0 0 0 0 0 0.3 0"/>
<feBlend mode="normal" in2="BackgroundImageFix" result="effect1_dropShadow"/>
<feBlend mode="normal" in="SourceGraphic" in2="effect1_dropShadow" result="shape"/>
</filter>
<filter id="filter4_d" x="63.8667" y="316.718" width="177.237" height="177.237" filterUnits="userSpaceOnUse" color-interpolation-filters="sRGB">
<feFlood flood-opacity="0" result="BackgroundImageFix"/>
<feColorMatrix in="SourceAlpha" type="matrix" values="0 0 0 0 0 0 0 0 0 0 0 0 0 0 0 0 0 0 127 0"/>
<feOffset dx="26.2963" dy="52.5926"/>
<feGaussianBlur stdDeviation="26.2963"/>
<feColorMatrix type="matrix" values="0 0 0 0 0 0 0 0 0 0 0 0 0 0 0 0 0 0 0.3 0"/>
<feBlend mode="normal" in2="BackgroundImageFix" result="effect1_dropShadow"/>
<feBlend mode="normal" in="SourceGraphic" in2="effect1_dropShadow" result="shape"/>
</filter>
<filter id="filter5_d" x="0.703703" y="33.1333" width="241.4" height="241.4" filterUnits="userSpaceOnUse" color-interpolation-filters="sRGB">
<feFlood flood-opacity="0" result="BackgroundImageFix"/>
<feColorMatrix in="SourceAlpha" type="matrix" values="0 0 0 0 0 0 0 0 0 0 0 0 0 0 0 0 0 0 127 0"/>
<feOffset dx="26.2963" dy="52.5926"/>
<feGaussianBlur stdDeviation="26.2963"/>
<feColorMatrix type="matrix" values="0 0 0 0 0 0 0 0 0 0 0 0 0 0 0 0 0 0 0.3 0"/>
<feBlend mode="normal" in2="BackgroundImageFix" result="effect1_dropShadow"/>
<feBlend mode="normal" in="SourceGraphic" in2="effect1_dropShadow" result="shape"/>
</filter>
<filter id="filter6_d" x="238.555" y="326.655" width="191.883" height="207.816" filterUnits="userSpaceOnUse" color-interpolation-filters="sRGB">
<feFlood flood-opacity="0" result="BackgroundImageFix"/>
<feColorMatrix in="SourceAlpha" type="matrix" values="0 0 0 0 0 0 0 0 0 0 0 0 0 0 0 0 0 0 127 0"/>
<feOffset dx="26.2963" dy="52.5926"/>
<feGaussianBlur stdDeviation="26.2963"/>
<feColorMatrix type="matrix" values="0 0 0 0 0 0 0 0 0 0 0 0 0 0 0 0 0 0 0.3 0"/>
<feBlend mode="normal" in2="BackgroundImageFix" result="effect1_dropShadow"/>
<feBlend mode="normal" in="SourceGraphic" in2="effect1_dropShadow" result="shape"/>
</filter>
<linearGradient id="paint0_linear" x1="299.495" y1="65.9734" x2="260.033" y2="49.2629" gradientUnits="userSpaceOnUse">
<stop stop-color="white" stop-opacity="0.75"/>
<stop offset="1" stop-color="#373737" stop-opacity="0"/>
</linearGradient>
<radialGradient id="paint1_radial" cx="0" cy="0" r="1" gradientUnits="userSpaceOnUse" gradientTransform="translate(5.99397 5.16292) rotate(97.125) scale(26.7539 85.5185)">
<stop stop-color="white" stop-opacity="0.49"/>
<stop offset="1" stop-opacity="0"/>
</radialGradient>
<linearGradient id="paint2_linear" x1="484.427" y1="201.527" x2="652.409" y2="357.185" gradientUnits="userSpaceOnUse">
<stop stop-color="white" stop-opacity="0.47"/>
<stop offset="1" stop-color="white" stop-opacity="0"/>
</linearGradient>
<radialGradient id="paint3_radial" cx="0" cy="0" r="1" gradientUnits="userSpaceOnUse" gradientTransform="translate(537.206 225.104) rotate(53.9993) scale(127.166)">
<stop stop-color="white"/>
<stop offset="1" stop-color="white" stop-opacity="0"/>
</radialGradient>
<linearGradient id="paint4_linear" x1="105.099" y1="144.743" x2="538.26" y2="293.824" gradientUnits="userSpaceOnUse">
<stop stop-color="#333333"/>
<stop offset="0.53125" stop-color="#596368"/>
<stop offset="1" stop-color="#333333"/>
</linearGradient>
<linearGradient id="paint5_linear" x1="285.742" y1="96.3396" x2="356.155" y2="359.125" gradientUnits="userSpaceOnUse">
<stop offset="0.6875" stop-opacity="0.4"/>
<stop offset="0.883584" stop-color="#333333" stop-opacity="0.643"/>
<stop offset="1" stop-opacity="0.94"/>
</linearGradient>
<linearGradient id="paint6_linear" x1="591.047" y1="284.872" x2="115.605" y2="412.266" gradientUnits="userSpaceOnUse">
<stop stop-color="#212121"/>
<stop offset="0.5" stop-color="#555555"/>
<stop offset="1" stop-color="#212121"/>
</linearGradient>
<linearGradient id="paint7_linear" x1="353.326" y1="348.569" x2="357.887" y2="365.589" gradientUnits="userSpaceOnUse">
<stop stop-color="#666666"/>
<stop offset="0.5" stop-color="#666666"/>
<stop offset="0.541667" stop-opacity="0.5"/>
<stop offset="1"/>
</linearGradient>
<linearGradient id="paint8_linear" x1="353.575" y1="349.498" x2="355.735" y2="357.56" gradientUnits="userSpaceOnUse">
<stop stop-color="#999999"/>
<stop offset="0.151042" stop-color="#777777"/>
<stop offset="0.609375" stop-color="#444444"/>
<stop offset="0.822917" stop-color="#333333"/>
<stop offset="1" stop-color="#222222"/>
</linearGradient>
<linearGradient id="paint9_linear" x1="317.715" y1="359.106" x2="389.435" y2="339.889" gradientUnits="userSpaceOnUse">
<stop stop-color="#333333"/>
<stop offset="0.130208" stop-color="#333333" stop-opacity="0.42"/>
<stop offset="0.932292" stop-color="#333333" stop-opacity="0.118947"/>
<stop offset="1" stop-color="#333333" stop-opacity="0.83"/>
</linearGradient>
<linearGradient id="paint10_linear" x1="466.162" y1="15.0464" x2="541.036" y2="84.4272" gradientUnits="userSpaceOnUse">
<stop stop-color="white" stop-opacity="0.47"/>
<stop offset="1" stop-color="white" stop-opacity="0"/>
</linearGradient>
<radialGradient id="paint11_radial" cx="0" cy="0" r="1" gradientUnits="userSpaceOnUse" gradientTransform="translate(489.687 25.5551) rotate(53.9993) scale(56.6814)">
<stop stop-color="white"/>
<stop offset="1" stop-color="white" stop-opacity="0"/>
</radialGradient>
<linearGradient id="paint12_linear" x1="100.589" y1="327.399" x2="153.738" y2="376.648" gradientUnits="userSpaceOnUse">
<stop stop-color="white" stop-opacity="0.47"/>
<stop offset="1" stop-color="white" stop-opacity="0"/>
</linearGradient>
<radialGradient id="paint13_radial" cx="0" cy="0" r="1" gradientUnits="userSpaceOnUse" gradientTransform="translate(117.288 334.858) rotate(53.9993) scale(40.235)">
<stop stop-color="white"/>
<stop offset="1" stop-color="white" stop-opacity="0"/>
</radialGradient>
<linearGradient id="paint14_linear" x1="46.7111" y1="53.3252" x2="147.19" y2="146.432" gradientUnits="userSpaceOnUse">
<stop stop-color="white" stop-opacity="0.47"/>
<stop offset="1" stop-color="white" stop-opacity="0"/>
</linearGradient>
<radialGradient id="paint15_radial" cx="0" cy="0" r="1" gradientUnits="userSpaceOnUse" gradientTransform="translate(78.2809 67.4274) rotate(53.9993) scale(76.0647)">
<stop stop-color="white"/>
<stop offset="1" stop-color="white" stop-opacity="0"/>
</radialGradient>
<linearGradient id="paint16_linear" x1="287.996" y1="389.819" x2="334.609" y2="376.702" gradientUnits="userSpaceOnUse">
<stop stop-color="white" stop-opacity="0.75"/>
<stop offset="1" stop-color="#373737" stop-opacity="0"/>
</linearGradient>
<radialGradient id="paint17_radial" cx="0" cy="0" r="1" gradientUnits="userSpaceOnUse" gradientTransform="translate(268.407 337.01) rotate(97.125) scale(30.2304 96.631)">
<stop stop-color="white" stop-opacity="0.49"/>
<stop offset="1" stop-opacity="0"/>
</radialGradient>
</defs>
</svg>
