<svg width="150" height="78" viewBox="0 0 150 78" fill="none" xmlns="http://www.w3.org/2000/svg">
<path fill-rule="evenodd" clip-rule="evenodd" d="M21 28.4832H24.5479V23.6451H21V28.4832Z" fill="#3EB5AF"/>
<path fill-rule="evenodd" clip-rule="evenodd" d="M21 54.6089H24.5479V50.8459H21V54.6089Z" fill="#229183"/>
<path fill-rule="evenodd" clip-rule="evenodd" d="M47.2332 54.6089H51.2112V50.8459H47.2332V54.6089Z" fill="#E15E38"/>
<path fill-rule="evenodd" clip-rule="evenodd" d="M47.2332 37.6218H51.2112V32.7837H47.2332V37.6218Z" fill="#B03439"/>
<path fill-rule="evenodd" clip-rule="evenodd" d="M29.4935 37.6218H34.0091V32.7837H29.4935V37.6218Z" fill="#B94F3C"/>
<path fill-rule="evenodd" clip-rule="evenodd" d="M29.4935 46.4379H34.0091V41.5998H29.4935V46.4379Z" fill="#DF542F"/>
<path fill-rule="evenodd" clip-rule="evenodd" d="M41.2125 42.89C41.9651 42.89 42.5026 43.535 42.5026 44.1801C42.5026 44.9327 41.8576 45.4703 41.2125 45.4703C40.4599 45.4703 39.9223 44.8252 39.9223 44.1801C39.8148 43.4275 40.4599 42.89 41.2125 42.89ZM48.4159 24.5052C49.1685 24.5052 49.706 25.1503 49.706 25.7954C49.706 26.5479 49.061 27.0855 48.4159 27.0855C47.6633 27.0855 47.1257 26.4404 47.1257 25.7954C47.1257 25.0428 47.6633 24.5052 48.4159 24.5052ZM24.6554 27.0855H45.9431C46.3731 27.9456 47.3407 28.5907 48.4159 28.5907C49.9211 28.5907 51.2112 27.3005 51.2112 25.7954C51.2112 24.2902 49.9211 23 48.4159 23C47.2332 23 46.2656 23.7526 45.8356 24.7202H24.6554C22.6127 24.7202 21 26.2254 21 28.2682V50.8459C21 52.8887 22.7202 54.6089 24.6554 54.6089H47.2332C49.276 54.6089 50.8887 52.8887 50.8887 50.8459V37.5143C50.8887 35.4715 49.276 33.8588 47.2332 33.8588H33.9016C31.8588 33.8588 30.1386 35.5791 30.1386 37.5143V41.7073C30.1386 43.6425 31.8588 45.2552 33.9016 45.2552H38.6322C39.0622 46.3304 40.0298 46.9755 41.2125 46.9755C42.7177 46.9755 44.0078 45.6853 44.0078 44.1801C44.0078 42.6749 42.7177 41.3848 41.2125 41.3848C40.1374 41.3848 39.1697 42.0298 38.7397 42.89H33.9016C33.2565 42.89 32.5039 42.4599 32.5039 41.7073V37.5143C32.5039 36.8692 33.149 36.2241 33.9016 36.2241H47.3407C48.0933 36.2241 48.6309 36.7617 48.6309 37.5143V50.9534C48.6309 51.706 48.0933 52.3511 47.3407 52.3511H24.763C24.0104 52.3511 23.4728 51.706 23.4728 50.9534V28.3757C23.3653 27.6231 23.9029 27.0855 24.6554 27.0855V27.0855Z" fill="url(#paint0_linear)"/>
<path fill-rule="evenodd" clip-rule="evenodd" d="M41.2125 42.8899C41.9651 42.8899 42.5026 43.535 42.5026 44.1801C42.5026 44.8252 41.8576 45.4703 41.2125 45.4703C40.4599 45.4703 39.9223 44.8252 39.9223 44.1801C39.9223 43.535 40.4599 42.8899 41.2125 42.8899ZM48.4159 24.5052C49.1685 24.5052 49.706 25.1503 49.706 25.7954C49.706 26.5479 49.061 27.0855 48.4159 27.0855C47.6633 27.0855 47.1257 26.4404 47.1257 25.7954C47.1257 25.0428 47.6633 24.5052 48.4159 24.5052ZM24.6554 27.0855H45.9431C46.3731 27.9456 47.3407 28.5907 48.4159 28.5907C49.9211 28.5907 51.2112 27.3005 51.2112 25.7954C51.2112 24.2902 49.9211 23 48.4159 23C47.2332 23 46.2656 23.7526 45.8356 24.7202H24.6554C22.6127 24.7202 21 26.2254 21 28.2682V50.8459C21 52.8887 22.7202 54.6089 24.6554 54.6089H47.2332C49.276 54.6089 50.8887 52.8887 50.8887 50.8459V37.4068C50.8887 35.364 49.276 33.7513 47.2332 33.7513H33.9016C31.8588 33.7513 30.1386 35.4715 30.1386 37.4068V41.5998C30.1386 43.535 31.8588 45.1477 33.9016 45.1477H38.6322C39.0622 46.2229 40.0298 46.868 41.2125 46.868C42.7177 46.868 44.0078 45.5778 44.0078 44.0726C44.0078 42.5674 42.7177 41.3848 41.2125 41.3848C40.1374 41.3848 39.1697 42.0298 38.7397 42.8899H33.9016C33.2565 42.8899 32.5039 42.4599 32.5039 41.7073V37.5143C32.5039 36.8692 33.149 36.2241 33.9016 36.2241H47.3407C48.0933 36.2241 48.6309 36.7617 48.6309 37.5143V50.9534C48.6309 51.706 48.0933 52.3511 47.3407 52.3511H24.763C24.0104 52.3511 23.4728 51.706 23.4728 50.9534V28.3757C23.3653 27.6231 23.9029 27.0855 24.6554 27.0855V27.0855Z" fill="url(#paint1_linear)"/>
<path fill-rule="evenodd" clip-rule="evenodd" d="M41.2125 42.89C41.9651 42.89 42.5027 43.535 42.5027 44.1801C42.5027 44.8252 41.8576 45.4703 41.2125 45.4703C40.4599 45.4703 39.9223 44.8252 39.9223 44.1801C39.9223 43.535 40.4599 42.89 41.2125 42.89ZM48.4159 24.5052C49.1685 24.5052 49.706 25.1503 49.706 25.7954C49.706 26.5479 49.061 27.0855 48.4159 27.0855C47.6633 27.0855 47.1257 26.4404 47.1257 25.7954C47.1257 25.0428 47.6633 24.5052 48.4159 24.5052ZM24.6554 27.0855H45.9431C46.3731 27.9456 47.3407 28.5907 48.4159 28.5907C49.9211 28.5907 51.2112 27.3005 51.2112 25.7954C51.2112 24.2902 49.9211 23 48.4159 23C47.2332 23 46.2656 23.7526 45.8356 24.7202H24.6554C22.6127 24.7202 21 26.2254 21 28.2682V50.8459C21 52.8887 22.7202 54.6089 24.6554 54.6089H47.2332C49.276 54.6089 50.8887 52.8887 50.8887 50.8459V37.4068C50.8887 35.364 49.276 33.7513 47.2332 33.7513H33.7941C31.7513 33.7513 30.0311 35.4715 30.0311 37.4068V41.5998C30.0311 43.535 31.7513 45.1477 33.7941 45.1477H38.5247C38.9547 46.2229 39.9223 46.8679 41.105 46.8679C42.6102 46.8679 43.9003 45.5778 43.9003 44.0726C43.9003 42.5674 42.6102 41.2773 41.105 41.2773C40.0298 41.2773 39.0622 41.9223 38.6322 42.7824H33.7941C33.149 42.7824 32.3964 42.3524 32.3964 41.5998V37.4068C32.3964 36.7617 33.0415 36.1166 33.7941 36.1166H47.2332C47.9858 36.1166 48.5234 36.6542 48.5234 37.4068V50.8459C48.5234 51.5985 47.9858 52.2436 47.2332 52.2436H24.6554C23.9029 52.2436 23.3653 51.5985 23.3653 50.8459V28.2682C23.3653 27.6231 23.9029 27.0855 24.6554 27.0855V27.0855Z" fill="url(#paint2_linear)"/>
<path fill-rule="evenodd" clip-rule="evenodd" d="M41.2125 42.89C41.9651 42.89 42.5026 43.535 42.5026 44.1801C42.5026 44.8252 41.8576 45.4703 41.2125 45.4703C40.4599 45.4703 39.9223 44.8252 39.9223 44.1801C39.9223 43.535 40.4599 42.89 41.2125 42.89V42.89ZM48.4159 24.5052C49.1685 24.5052 49.706 25.1503 49.706 25.7954C49.706 26.5479 49.061 27.0855 48.4159 27.0855C47.6633 27.0855 47.1257 26.4404 47.1257 25.7954C47.1257 25.0428 47.6633 24.5052 48.4159 24.5052ZM24.6554 27.0855H45.9431C46.3731 27.9456 47.3407 28.5907 48.4159 28.5907C49.9211 28.5907 51.2112 27.3005 51.2112 25.7954C51.2112 24.2902 49.9211 23 48.4159 23C47.2332 23 46.2656 23.7526 45.8356 24.7202H24.6554C22.6127 24.7202 21 26.2254 21 28.2682V50.8459C21 52.8887 22.7202 54.6089 24.6554 54.6089H47.2332C49.276 54.6089 50.8887 52.8887 50.8887 50.8459V37.4068C50.8887 35.364 49.276 33.7513 47.2332 33.7513H33.7941C31.7513 33.7513 30.0311 35.4715 30.0311 37.4068V41.5998C30.0311 43.535 31.7513 45.1477 33.7941 45.1477H38.5247C38.9547 46.2229 39.9223 46.8679 41.105 46.8679C42.6102 46.8679 43.9003 45.5778 43.9003 44.0726C43.9003 42.5674 42.6102 41.2773 41.105 41.2773C40.0298 41.2773 39.0622 41.9223 38.6322 42.7824H33.7941C33.149 42.7824 32.3964 42.3524 32.3964 41.5998V37.4068C32.3964 36.7617 33.0415 36.1166 33.7941 36.1166H47.2332C47.9858 36.1166 48.5234 36.6542 48.5234 37.4068V50.8459C48.5234 51.5985 47.9858 52.2436 47.2332 52.2436H24.6554C23.9029 52.2436 23.3653 51.5985 23.3653 50.8459V28.2682C23.3653 27.6231 23.9029 27.0855 24.6554 27.0855V27.0855Z" fill="url(#paint3_linear)"/>
<path fill-rule="evenodd" clip-rule="evenodd" d="M41.2125 42.89C41.9651 42.89 42.5026 43.535 42.5026 44.1801C42.5026 44.8252 41.8576 45.4703 41.2125 45.4703C40.4599 45.4703 39.9223 44.8252 39.9223 44.1801C39.9223 43.535 40.4599 42.89 41.2125 42.89ZM48.4159 24.5052C49.1685 24.5052 49.706 25.1503 49.706 25.7954C49.706 26.5479 49.061 27.0855 48.4159 27.0855C47.6633 27.0855 47.1257 26.4404 47.1257 25.7954C47.1257 25.0428 47.6633 24.5052 48.4159 24.5052ZM24.6555 27.0855H45.9431C46.3731 27.9456 47.3407 28.5907 48.4159 28.5907C49.9211 28.5907 51.2112 27.3005 51.2112 25.7954C51.2112 24.2902 49.9211 23 48.4159 23C47.2332 23 46.2656 23.7526 45.8356 24.7202H24.6555C22.6127 24.7202 21 26.2254 21 28.2682V50.8459C21 52.8887 22.7202 54.6089 24.6555 54.6089H47.2332C49.276 54.6089 50.8887 52.8887 50.8887 50.8459V37.4068C50.8887 35.364 49.276 33.7513 47.2332 33.7513H33.7941C31.7513 33.7513 30.0311 35.4715 30.0311 37.4068V41.5998C30.0311 43.535 31.7513 45.1477 33.7941 45.1477H38.5247C38.9547 46.2229 39.9223 46.8679 41.105 46.8679C42.6102 46.8679 43.9003 45.5778 43.9003 44.0726C43.9003 42.5674 42.6102 41.2773 41.105 41.2773C40.0298 41.2773 39.0622 41.9223 38.6322 42.7824H33.7941C33.149 42.7824 32.3964 42.3524 32.3964 41.5998V37.4068C32.3964 36.7617 33.0415 36.1166 33.7941 36.1166H47.2332C47.9858 36.1166 48.5234 36.6542 48.5234 37.4068V50.8459C48.5234 51.5985 47.9858 52.2436 47.2332 52.2436H24.6555C23.9029 52.2436 23.3653 51.5985 23.3653 50.8459V28.2682C23.3653 27.6231 23.9029 27.0855 24.6555 27.0855V27.0855Z" fill="url(#paint4_linear)"/>
<path fill-rule="evenodd" clip-rule="evenodd" d="M41.2125 42.89C41.9651 42.89 42.5026 43.535 42.5026 44.1801C42.5026 44.9327 41.8576 45.4703 41.2125 45.4703C40.4599 45.4703 39.9223 44.8252 39.9223 44.1801C39.8148 43.4275 40.4599 42.89 41.2125 42.89ZM48.4159 24.5052C49.1685 24.5052 49.706 25.1503 49.706 25.7954C49.706 26.5479 49.061 27.0855 48.4159 27.0855C47.6633 27.0855 47.1257 26.4404 47.1257 25.7954C47.1257 25.0428 47.6633 24.5052 48.4159 24.5052ZM24.6554 27.0855H45.9431C46.3731 27.9456 47.3407 28.5907 48.4159 28.5907C49.9211 28.5907 51.2112 27.3005 51.2112 25.7954C51.2112 24.2902 49.9211 23 48.4159 23C47.2332 23 46.2656 23.7526 45.8356 24.7202H24.6554C22.6127 24.7202 21 26.2254 21 28.2682V50.8459C21 52.8887 22.7202 54.6089 24.6554 54.6089H47.2332C49.276 54.6089 50.8887 52.8887 50.8887 50.8459V37.5143C50.8887 35.4715 49.276 33.8588 47.2332 33.8588H33.9016C31.8588 33.8588 30.1386 35.5791 30.1386 37.5143V41.7073C30.1386 43.6425 31.8588 45.2552 33.9016 45.2552H38.6322C39.0622 46.3304 40.0298 46.9755 41.2125 46.9755C42.7177 46.9755 44.0078 45.6853 44.0078 44.1801C44.0078 42.6749 42.7177 41.3848 41.2125 41.3848C40.1374 41.3848 39.1697 42.0299 38.7397 42.89H33.9016C33.2565 42.89 32.5039 42.4599 32.5039 41.7073V37.5143C32.5039 36.8692 33.149 36.2241 33.9016 36.2241H47.3407C48.0933 36.2241 48.6309 36.7617 48.6309 37.5143V50.9534C48.6309 51.706 48.0933 52.3511 47.3407 52.3511H24.763C24.0104 52.3511 23.4728 51.706 23.4728 50.9534V28.3757C23.3653 27.6231 23.9029 27.0855 24.6554 27.0855V27.0855Z" fill="url(#paint5_linear)"/>
<path fill-rule="evenodd" clip-rule="evenodd" d="M41.2125 42.89C41.9651 42.89 42.5026 43.535 42.5026 44.1801C42.5026 44.8252 41.8576 45.4703 41.2125 45.4703C40.4599 45.4703 39.9223 44.8252 39.9223 44.1801C39.9223 43.535 40.4599 42.89 41.2125 42.89V42.89ZM48.4159 24.5052C49.1685 24.5052 49.706 25.1503 49.706 25.7954C49.706 26.5479 49.061 27.0855 48.4159 27.0855C47.6633 27.0855 47.1257 26.4404 47.1257 25.7954C47.1257 25.0428 47.6633 24.5052 48.4159 24.5052ZM24.6554 27.0855H45.9431C46.3731 27.9456 47.3407 28.5907 48.4159 28.5907C49.9211 28.5907 51.2112 27.3005 51.2112 25.7954C51.2112 24.2902 49.9211 23 48.4159 23C47.2332 23 46.2656 23.7526 45.8356 24.7202H24.6554C22.6127 24.7202 21 26.2254 21 28.2682V50.8459C21 52.8887 22.7202 54.6089 24.6554 54.6089H47.2332C49.276 54.6089 50.8887 52.8887 50.8887 50.8459V37.4068C50.8887 35.364 49.276 33.7513 47.2332 33.7513H33.7941C31.7513 33.7513 30.0311 35.4715 30.0311 37.4068V41.5998C30.0311 43.535 31.7513 45.1477 33.7941 45.1477H38.5247C38.9547 46.2229 39.9223 46.8679 41.105 46.8679C42.6102 46.8679 43.9003 45.5778 43.9003 44.0726C43.9003 42.5674 42.6102 41.2773 41.105 41.2773C40.0298 41.2773 39.0622 41.9223 38.6322 42.7824H33.7941C33.149 42.7824 32.3964 42.3524 32.3964 41.5998V37.4068C32.3964 36.7617 33.0415 36.1166 33.7941 36.1166H47.2332C47.9858 36.1166 48.5234 36.6542 48.5234 37.4068V50.8459C48.5234 51.5985 47.9858 52.2436 47.2332 52.2436H24.6554C23.9029 52.2436 23.3653 51.5985 23.3653 50.8459V28.2682C23.3653 27.6231 23.9029 27.0855 24.6554 27.0855V27.0855Z" fill="url(#paint6_linear)"/>
<path fill-rule="evenodd" clip-rule="evenodd" d="M62.8226 42.0298C61.3175 42.0298 60.1348 40.8472 60.1348 39.342C60.1348 37.8368 61.3175 36.6542 62.8226 36.6542C64.3278 36.6542 65.5105 37.8368 65.5105 39.342C65.403 40.8472 64.2203 42.0298 62.8226 42.0298ZM62.8226 34.934C60.3498 34.934 58.4146 36.9767 58.4146 39.342C58.4146 41.8148 60.4574 43.7501 62.8226 43.7501C63.7903 43.7501 64.7579 43.4275 65.5105 42.89V46.1154C65.5105 47.6205 64.3278 48.8032 62.8226 48.8032V50.6309C65.2954 50.6309 67.2307 48.5882 67.2307 46.2229V39.4495C67.2307 36.8692 65.1879 34.934 62.8226 34.934V34.934Z" fill="#010412"/>
<path fill-rule="evenodd" clip-rule="evenodd" d="M75.2942 39.6646C75.2942 41.1697 74.1115 42.3524 72.6063 42.3524C71.1012 42.3524 69.9185 41.1697 69.9185 39.6646V35.5791H68.0908V39.6646C68.0908 42.1374 70.1335 44.0726 72.4988 44.0726C74.8641 44.0726 76.9069 42.0298 76.9069 39.6646V35.5791H75.0792V39.6646" fill="#010412"/>
<path fill-rule="evenodd" clip-rule="evenodd" d="M89.4859 35.149C87.9807 35.149 86.6906 35.9016 85.938 36.9767C85.0779 35.9016 83.7877 35.149 82.3901 35.149C79.9173 35.149 77.982 37.1918 77.982 39.557V43.6425H79.8097V39.557C79.8097 38.0519 80.9924 36.8692 82.4976 36.8692C84.0028 36.8692 85.1854 38.0519 85.1854 39.557V43.6425H87.0131V39.557C87.0131 38.0519 88.1958 36.8692 89.701 36.8692C91.2061 36.8692 92.3888 38.0519 92.3888 39.557V43.6425H94.2165V39.557C94.0015 37.1918 91.9587 35.149 89.4859 35.149" fill="#010412"/>
<path fill-rule="evenodd" clip-rule="evenodd" d="M94.9691 39.6646V43.7501H96.7968V39.6646C96.7968 38.1594 97.9795 36.9767 99.4847 36.9767V35.149C97.0119 35.149 94.9691 37.1918 94.9691 39.6646" fill="#010412"/>
<path fill-rule="evenodd" clip-rule="evenodd" d="M104.43 42.0298C102.925 42.0298 101.742 40.8472 101.742 39.342C101.742 37.8368 102.925 36.6542 104.43 36.6542C105.935 36.6542 107.118 37.8368 107.118 39.342C107.118 40.8472 105.935 42.0298 104.43 42.0298ZM104.43 34.934C101.957 34.934 100.022 36.9767 100.022 39.342C100.022 41.8148 102.065 43.7501 104.43 43.7501C106.903 43.7501 108.838 41.7073 108.838 39.342C108.946 36.8692 106.903 34.934 104.43 34.934Z" fill="#010412"/>
<path fill-rule="evenodd" clip-rule="evenodd" d="M114.214 42.0298C112.709 42.0298 111.526 40.8472 111.526 39.342C111.526 37.8368 112.709 36.6542 114.214 36.6542C115.719 36.6542 116.902 37.8368 116.902 39.342C116.902 40.8472 115.719 42.0298 114.214 42.0298ZM114.214 34.934C111.741 34.934 109.806 36.9767 109.806 39.342C109.806 41.8148 111.849 43.7501 114.214 43.7501C115.182 43.7501 116.149 43.4275 116.902 42.89V43.535H118.73V39.342C118.73 36.8692 116.687 34.934 114.214 34.934V34.934Z" fill="#010412"/>
<path fill-rule="evenodd" clip-rule="evenodd" d="M124.105 42.0298C122.6 42.0298 121.417 40.8472 121.417 39.342C121.417 37.8368 122.6 36.6542 124.105 36.6542C125.61 36.6542 126.793 37.8368 126.793 39.342C126.793 40.8472 125.503 42.0298 124.105 42.0298ZM126.793 30.8485V35.7941C126.04 35.2565 125.073 34.934 124.105 34.934C121.632 34.934 119.697 36.9767 119.697 39.342C119.697 41.8148 121.74 43.7501 124.105 43.7501C126.578 43.7501 128.513 41.7073 128.513 39.342V30.8485H126.793Z" fill="#010412"/>
<defs>
<linearGradient id="paint0_linear" x1="36.1207" y1="50.6212" x2="36.1207" y2="29.0103" gradientUnits="userSpaceOnUse">
<stop stop-color="#249184"/>
<stop offset="1" stop-color="#3FB5AF"/>
</linearGradient>
<linearGradient id="paint1_linear" x1="24.5003" y1="38.8394" x2="47.2986" y2="38.8394" gradientUnits="userSpaceOnUse">
<stop stop-color="#249184"/>
<stop offset="1" stop-color="#E15F38"/>
</linearGradient>
<linearGradient id="paint2_linear" x1="36.1215" y1="37.5614" x2="36.1215" y2="50.806" gradientUnits="userSpaceOnUse">
<stop stop-color="#B1343A"/>
<stop offset="1" stop-color="#E15F38"/>
</linearGradient>
<linearGradient id="paint3_linear" x1="47.1129" y1="38.8351" x2="34.1418" y2="38.8351" gradientUnits="userSpaceOnUse">
<stop stop-color="#B1343A"/>
<stop offset="1" stop-color="#BA503D"/>
</linearGradient>
<linearGradient id="paint4_linear" x1="36.121" y1="37.6102" x2="36.121" y2="41.586" gradientUnits="userSpaceOnUse">
<stop stop-color="#BA503D"/>
<stop offset="1" stop-color="#DF5430"/>
</linearGradient>
<linearGradient id="paint5_linear" x1="51.6999" y1="38.8428" x2="24.966" y2="38.8428" gradientUnits="userSpaceOnUse">
<stop stop-color="#2270A8"/>
<stop offset="1" stop-color="#3FB5AF"/>
</linearGradient>
<linearGradient id="paint6_linear" x1="33.8856" y1="38.8304" x2="44.5047" y2="38.8304" gradientUnits="userSpaceOnUse">
<stop stop-color="#DF5430"/>
<stop offset="1" stop-color="#F0A44C"/>
</linearGradient>
</defs>
</svg>
