<svg width="29" height="29" viewBox="0 0 29 29" fill="none" xmlns="http://www.w3.org/2000/svg">
<path fill-rule="evenodd" clip-rule="evenodd" d="M5.67048 12.1691C5.70939 12.1984 5.77694 12.2175 5.70939 12.2755C5.66094 12.3431 5.60294 12.4011 5.56439 12.4785C5.52584 12.5464 5.49684 12.5655 5.43884 12.5174C5.51594 12.3915 5.59302 12.2752 5.67011 12.1687L5.67048 12.1691ZM25.0876 22.3069C25.0876 22.3356 25.0972 22.3547 25.0972 22.384C25.1166 22.3455 25.1166 22.326 25.1265 22.3069H25.0876ZM25.0876 22.3936V22.384V22.3936ZM23.1171 26.1662L21.4358 16.8413C21.4072 16.8322 21.3687 16.8131 21.3007 16.7937C21.3202 16.8322 21.3302 16.8612 21.3397 16.8902C21.3873 16.8807 21.4072 16.8807 21.4263 16.8711C21.4263 16.8615 21.4263 16.852 21.4362 16.8417L23.1175 26.1673L23.1171 26.1662ZM21.3782 14.7424C21.3687 14.771 21.3687 14.8004 21.3687 14.8294C21.3687 14.8 21.3687 14.7706 21.3789 14.742L21.3782 14.7424ZM21.3878 14.9355C21.3782 14.9355 21.3782 14.9355 21.3687 14.9252V14.9347C21.3789 14.9443 21.3789 14.9443 21.3885 14.9347L21.3878 14.9355ZM21.3687 15.0125V14.9446C21.3404 14.9542 21.3114 14.9542 21.2725 14.964C21.3209 14.9824 21.3694 14.9927 21.3694 15.0118L21.3687 15.0125Z" fill="white"/>
<path fill-rule="evenodd" clip-rule="evenodd" d="M28.8935 12.6624C28.8744 12.285 28.8648 11.9076 28.8259 11.5306C28.7584 11.0178 28.6908 10.4954 28.5748 9.99254C28.4878 9.57658 28.3436 9.17982 28.1982 8.78334C28.0147 8.31896 27.8311 7.84506 27.5991 7.40014C27.2224 6.68432 26.7298 6.04559 26.2758 5.37822C25.9754 4.9524 25.5893 4.6044 25.2993 4.16903C25.1352 3.91758 24.8937 3.70503 24.6521 3.51194C24.2655 3.20175 23.8599 2.92093 23.4543 2.65039C23.1482 2.43572 22.8321 2.23556 22.5072 2.05056C22.2466 1.90482 21.9665 1.78882 21.6959 1.66292C21.3868 1.51792 21.0873 1.34355 20.7397 1.27601C20.6523 1.25765 20.5752 1.22828 20.4882 1.19892C20.2662 1.12182 20.0536 1.03482 19.8312 0.96692C19.4934 0.860461 19.1649 0.734916 18.8169 0.647549C18.4798 0.560549 18.1318 0.502916 17.7838 0.454094C17.3977 0.397195 17.002 0.377005 16.6151 0.339195C16.3681 0.307286 16.1201 0.284755 15.8714 0.271651C15.5043 0.252562 15.1276 0.252562 14.7605 0.243018C14.577 0.233106 14.3839 0.213651 14.2004 0.223562C13.9202 0.233106 13.6402 0.262106 13.3597 0.300651C13.0896 0.330018 12.819 0.377739 12.5584 0.417018C12.2401 0.455562 11.9215 0.475018 11.6025 0.513929C11.3029 0.55284 10.9939 0.61084 10.6947 0.659296C10.5882 0.678752 10.4817 0.717296 10.3753 0.736385C10.1441 0.78484 9.90247 0.804296 9.67047 0.881752C9.25567 1.00803 8.83977 1.1534 8.43414 1.30758C8.05714 1.46248 7.69005 1.62694 7.33287 1.8204C6.96578 2.02303 6.61778 2.26458 6.27015 2.49731C5.93624 2.72075 5.61055 2.9562 5.29369 3.20322C4.98534 3.4455 4.69534 3.71605 4.41489 3.98695C4.26071 4.14113 4.1348 4.32541 3.9898 4.49941C3.74862 4.78023 3.50708 5.05078 3.27508 5.34114C3.08272 5.58342 2.90798 5.83452 2.72444 6.08634C2.39663 6.53052 2.11655 7.00479 1.85591 7.47907C1.74945 7.67253 1.65291 7.86598 1.55636 8.05907C1.41136 8.34907 1.25682 8.62989 1.12174 8.9298C1.02482 9.13315 0.947736 9.35563 0.889733 9.57812C0.755011 10.0524 0.619555 10.5362 0.49401 11.0097C0.37801 11.4356 0.34901 11.8804 0.339834 12.3158C0.329922 12.7028 0.368467 13.0801 0.40701 13.467C0.416922 13.5639 0.359289 13.6799 0.474555 13.757C0.43601 13.8635 0.46501 13.9222 0.522276 13.9405C0.455467 14.047 0.551643 14.1153 0.513467 14.2122C0.503555 14.2313 0.542834 14.2699 0.561188 14.2989C0.561188 14.3282 0.552011 14.3667 0.561188 14.3957C0.571467 14.4827 0.61001 14.5697 0.61001 14.6666C0.61001 14.7342 0.667643 14.8117 0.6871 14.8796C0.696643 14.9082 0.6871 14.9567 0.667643 14.9761C0.609643 15.0437 0.619188 15.1016 0.706188 15.1406C0.755011 15.2661 0.735555 15.3241 0.726011 15.3828C0.7451 15.4695 0.7161 15.4985 0.726011 15.518C0.8031 15.6728 0.832467 15.8468 0.841643 16.0208C0.841643 16.0598 0.8611 16.0987 0.880555 16.1468C0.8901 16.1468 0.880555 16.3303 0.880555 16.3303C0.928279 16.3017 0.967556 16.2922 1.01564 16.2727C1.04501 16.3982 1.07364 16.5149 1.11218 16.6214C1.16064 16.6985 1.16064 16.7367 1.14156 16.7462C1.1801 16.9202 1.19918 17.0847 1.26636 17.2492C1.26636 17.0656 1.24801 16.882 1.21864 16.7077C1.35374 16.7562 1.46974 16.8042 1.54718 16.8042C1.5571 16.7748 1.56664 16.7367 1.57656 16.7172C1.51856 16.6596 1.4701 16.5726 1.4121 16.5146C1.43156 16.5917 1.4121 16.621 1.4121 16.6504C1.37356 16.6306 1.3251 16.6112 1.27701 16.5917C1.31556 16.5439 1.3541 16.4952 1.4121 16.4375C1.4121 16.3502 1.36438 16.2723 1.22856 16.2822C1.28656 16.2632 1.34456 16.2345 1.4121 16.2147C1.51856 16.157 1.40256 16.0506 1.40256 15.9152C1.4121 15.751 1.31556 15.5866 1.28656 15.4122C1.2381 15.1417 1.24801 14.7353 1.21901 14.4644C1.16101 14.416 1.11256 14.5415 1.10301 14.5514C1.13238 14.7834 1.16101 15.0154 1.1801 15.2478C1.12247 15.0543 1.08356 14.8414 1.03547 14.6091C1.02556 14.677 1.01601 14.706 1.01601 14.7448C0.96829 14.7926 1.00647 14.8513 1.03547 14.9188C0.967918 14.8895 0.890467 14.8998 0.890467 14.8998V15.1707C0.794289 15.0738 0.765656 14.9967 0.716834 14.9284C0.697745 14.8513 0.687467 14.7742 0.669112 14.6972C0.687467 14.6483 0.669112 14.6193 0.669112 14.5907C0.657772 14.5133 0.64798 14.4357 0.639745 14.358C0.649289 14.3484 0.630201 14.2038 0.630201 14.2038C0.707289 14.213 0.756112 14.2221 0.804201 14.2221C0.707656 14.0973 0.774834 14.0195 0.814112 13.9421C0.833568 13.9031 0.901112 13.8943 0.920567 13.8547C0.997653 13.7097 1.12357 13.5941 1.12357 13.4097C1.12357 13.3227 1.15294 13.2262 1.16211 13.1389C1.18157 12.9744 1.20065 12.8099 1.20983 12.6455C1.22965 12.4325 1.20983 12.2197 1.25865 12.0167C1.33648 11.6789 1.43302 11.3401 1.53911 11.0013C1.6162 10.7591 1.70357 10.5278 1.79975 10.2854C1.94475 9.90808 2.0802 9.53072 2.26375 9.1732C2.52438 8.65045 2.82392 8.14754 3.11392 7.63508C3.29747 7.31572 3.49056 7.0158 3.69392 6.70635C3.88664 6.40644 4.07936 6.09698 4.30218 5.81615C4.60807 5.42004 4.95101 5.05399 5.32636 4.72296C5.71291 4.37496 6.08 4.01706 6.49517 3.69769C7.03494 3.28064 7.61001 2.91142 8.21389 2.59422C8.70689 2.33359 9.21861 2.12948 9.73073 1.93603C10.0592 1.81048 10.4164 1.75248 10.7549 1.64603C11.141 1.52012 11.5276 1.46248 11.9332 1.45258C12.1938 1.44266 12.4453 1.41366 12.7059 1.38466C12.9379 1.36631 13.1696 1.34648 13.4211 1.31748C13.3917 1.35603 13.3821 1.37548 13.3726 1.39458C13.2668 1.54948 13.1508 1.7044 13.0444 1.85894C12.9574 1.98486 12.8608 2.12031 12.7738 2.24586C12.6189 2.44959 12.4545 2.65259 12.3098 2.8655C12.0878 3.18487 11.8848 3.51378 11.6528 3.83278C11.4215 4.14223 11.17 4.4326 10.9285 4.73214C10.6099 5.14842 10.3104 5.57388 9.99173 5.98979C9.70173 6.38625 9.39333 6.76435 9.11285 7.1608C8.8618 7.50843 8.63934 7.87662 8.3978 8.2338C8.04062 8.76608 7.68308 9.28812 7.3259 9.82036C7.04549 10.2255 6.76209 10.6286 6.47572 11.0296C6.45627 11.0589 6.42727 11.0677 6.39863 11.0872C6.32154 11.2127 6.32154 11.2806 6.29217 11.3386C6.21509 11.4836 6.138 11.6286 6.05063 11.7644C6.00217 11.8416 5.93463 11.9091 5.87663 11.9866C5.86709 11.8706 6.03081 11.8126 5.95372 11.6672C5.906 11.7451 5.85717 11.8126 5.80909 11.8901L5.69309 12.1212C5.73163 12.1506 5.79955 12.1701 5.73163 12.2277C5.70227 12.2766 5.67363 12.3342 5.64463 12.3831C5.68645 12.3584 5.72269 12.3254 5.75109 12.2861C5.75109 12.3926 5.69309 12.4792 5.64463 12.5662C5.60609 12.6432 5.50955 12.7021 5.442 12.7596C5.45155 12.7696 5.51909 12.7986 5.529 12.8081C5.616 12.7787 5.645 12.7311 5.65491 12.7596C5.68428 12.7211 5.71291 12.6921 5.72245 12.6631C5.76063 12.5662 5.81863 12.4891 5.91517 12.4502C5.95409 12.4307 5.98272 12.4017 6.01172 12.3731C6.30172 12.0728 6.60127 11.7828 6.8619 11.4635C7.2679 10.9698 7.63498 10.4576 8.0219 9.95475C8.18562 9.74179 8.37908 9.52891 8.5527 9.32554C8.58134 9.54794 8.56225 9.76054 8.5527 9.96427C8.52334 10.3218 8.50425 10.6801 8.47562 11.0471C8.46571 11.1921 8.47562 11.3371 8.46571 11.4825C8.46571 11.5211 8.43634 11.5501 8.43634 11.589C8.43634 11.6855 8.46571 11.792 8.46571 11.8889C8.43634 12.2468 8.39743 12.5948 8.36843 12.9527C8.35851 13.0298 8.39707 13.1076 8.41615 13.1756C8.36843 13.6976 8.47489 14.2493 8.38751 14.8007C8.45507 14.6942 8.47451 14.6267 8.47451 14.5591C8.48369 14.5011 8.47451 14.4431 8.47451 14.3755V14.2787C8.48369 14.1043 8.52224 13.9208 8.50315 13.7464C8.48369 13.5529 8.48369 13.3694 8.52261 13.1854C8.54207 13.1084 8.51307 13.0114 8.56151 12.9146V13.0596C8.55197 13.6102 8.57143 14.1619 8.49434 14.7133C8.48443 14.7618 8.52371 14.8491 8.41725 14.8392C8.32989 15.0132 8.43634 15.1391 8.34016 15.2357C8.32034 15.2551 8.35851 15.3421 8.36843 15.4001C8.32951 15.5165 8.32951 15.5165 8.38751 15.526C8.39707 15.7389 8.41689 15.932 8.42607 16.1354C8.58024 15.7683 8.50315 15.3902 8.57143 15.0128C8.58097 15.1678 8.59089 15.3227 8.58097 15.4864C8.58097 15.7385 8.57143 15.9801 8.56189 16.2315C8.56189 16.28 8.55197 16.3285 8.54243 16.3769C8.51307 16.5127 8.50389 16.6479 8.45543 16.7734C8.41689 16.8703 8.43634 17.0157 8.43634 17.1313V17.4995C8.47489 17.6639 8.42643 17.751 8.45543 17.8475C8.42606 17.9448 8.41689 17.9738 8.42607 18.0028L8.45543 18.1478C8.64889 18.1283 8.56189 18.2737 8.63897 18.3508C8.58097 18.4286 8.60043 18.4572 8.60043 18.4965C8.60043 18.5835 8.59125 18.6609 8.58134 18.7479C8.58134 18.9704 8.5718 19.1929 8.5718 19.4058C8.5718 19.4351 8.58134 19.4634 8.58134 19.4924C8.58134 19.5122 8.5718 19.7641 8.5718 19.7641C8.59125 19.7927 8.5718 19.8217 8.54243 19.8507C8.53325 19.8507 8.50425 18.622 8.50425 18.622H8.35925C8.34016 19.202 8.38862 19.7244 8.28216 20.2666C8.16616 20.2758 8.12798 20.2952 8.00171 20.2952C7.70216 20.2952 7.40262 20.2952 7.10308 20.3048C6.74553 20.3048 6.39827 20.3143 6.04035 20.3143C5.86709 20.3143 5.68354 20.3341 5.50954 20.3341C5.27754 20.3341 5.036 20.3048 4.80474 20.3048C4.44682 20.3048 4.09918 20.3341 3.74164 20.3437C3.48101 20.3532 3.22038 20.3532 2.95975 20.3631C2.78538 20.3724 2.61101 20.3815 2.43775 20.4014C2.36065 20.4109 2.29275 20.4399 2.1962 20.4689C2.16683 20.4689 2.09965 20.4594 2.04202 20.4689C1.94475 20.4884 1.85848 20.5459 1.7612 20.5658C1.6162 20.5951 1.57765 20.6334 1.59675 20.7787V20.8752C1.5872 20.8944 1.80965 20.8459 1.80965 20.8459C1.78983 20.8459 1.78029 20.9039 1.75092 20.9524C1.82875 20.9229 1.87683 20.9039 1.92529 20.8848C2.07029 20.9527 2.19583 20.9141 2.31147 20.9435C2.6881 21.0397 3.07428 21.0793 3.46045 21.1171C3.71191 21.1366 3.95345 21.1465 4.20455 21.1557C4.56172 21.1751 4.91927 21.1946 5.27644 21.1946C5.57598 21.1946 5.86598 21.1652 6.1648 21.1652C6.57961 21.1652 6.99589 21.1844 7.41106 21.1946C7.49806 21.1946 7.59461 21.1844 7.69115 21.1844H8.39596C9.02442 21.1652 9.65216 21.1549 10.2802 21.1366C10.6382 21.1263 11.0052 21.1072 11.3624 21.0974L12.4637 21.0679C12.8887 21.0584 13.3139 21.0584 13.7294 21.0496C14.048 21.0496 14.3571 21.0386 14.6765 21.0294C15.0333 21.0199 15.4004 20.9909 15.7579 20.9718C15.9514 20.9619 16.1448 20.9424 16.3379 20.9234C16.5699 20.9042 16.8114 20.8756 17.0427 20.8657C17.3907 20.8459 17.7482 20.8363 18.0962 20.8169C18.5309 20.7882 18.9655 20.7497 19.4098 20.7398C19.8158 20.7207 20.2309 20.7302 20.6369 20.7207C20.9944 20.7108 21.352 20.6914 21.7191 20.6818L22.3284 20.6524C22.3284 20.6524 22.7337 20.6429 22.9367 20.623C23.2843 20.6039 23.632 20.5654 23.98 20.5559C24.2017 20.5459 24.4241 20.5559 24.6462 20.5459C25.0034 20.5364 25.3705 20.5166 25.728 20.5166C25.8628 20.5166 26.0078 20.5364 26.1818 20.5459C26.1047 20.6139 26.0562 20.6524 25.9982 20.7009C26.0368 20.7104 26.0753 20.7302 26.1142 20.7494C26.0691 20.7812 26.0152 20.7979 25.96 20.797C25.9402 20.8459 25.9208 20.8653 25.9013 20.9622H26.0753C26.0078 20.9622 25.9498 21.0492 25.8822 21.1072C25.8052 21.0874 25.7372 21.1072 25.6987 21.2137C25.7662 21.2519 25.7567 21.2809 25.7472 21.3201C25.6312 21.3584 25.5442 21.3972 25.593 21.5228C25.5537 21.5419 25.5056 21.5613 25.4572 21.5903C25.4094 21.6674 25.322 21.6869 25.3412 21.7933C25.38 21.8025 25.4182 21.8227 25.4476 21.8315C25.3992 21.8509 25.351 21.8799 25.3026 21.899C25.1289 22.0055 25.2064 22.0539 25.245 22.1024C25.2156 22.1219 25.1869 22.1409 25.1579 22.1509C25.177 22.2379 25.2057 22.2574 25.2156 22.2574C25.1663 22.2947 25.1179 22.3333 25.0706 22.3734C25.0412 22.4604 25.0027 22.4989 24.9642 22.5569C24.9256 22.6149 24.9062 22.6927 24.8577 22.7504C24.655 22.9731 24.51 23.2348 24.2494 23.4085C24.1525 23.4765 24.0659 23.5635 23.9789 23.6508C23.8049 23.8149 23.6504 23.9988 23.4668 24.1537C23.2241 24.3547 22.9728 24.545 22.7135 24.7242C22.3952 24.9466 22.0766 25.1691 21.7576 25.3819C21.5837 25.4976 21.3905 25.5846 21.207 25.6911C21.0234 25.7975 20.8494 25.8944 20.6659 26.0005C20.5499 26.0776 20.4434 26.1841 20.3179 26.2428C19.9993 26.3786 19.6608 26.4943 19.3326 26.6201C19.0133 26.756 18.782 26.8716 18.5405 26.9586C18.3184 27.0358 18.0864 27.0945 17.8547 27.1421C17.7777 27.162 17.6902 27.1421 17.6032 27.1521C17.4388 27.1815 17.2747 27.2204 17.1102 27.2395C16.6852 27.2975 16.2601 27.3364 15.8354 27.3944C15.5839 27.4237 15.3424 27.4715 15.0913 27.5008C14.9177 27.5104 14.7341 27.4912 14.5601 27.4912C14.4345 27.4912 14.2995 27.5206 14.1735 27.5012C13.9709 27.4718 13.7679 27.4241 13.5649 27.3852C13.5172 27.3756 13.4489 27.3558 13.4107 27.3756C13.3337 27.4146 13.2654 27.3566 13.1879 27.3756C13.1402 27.3856 13.0917 27.3462 13.0433 27.3462C13.0044 27.3371 12.9559 27.3566 12.9075 27.3462C12.801 27.3176 12.7049 27.2791 12.5881 27.2886C12.4732 27.2982 12.3569 27.2402 12.2321 27.2116C12.0577 27.1726 11.8943 27.1344 11.7196 27.0952C11.6521 27.0741 11.5874 27.0449 11.5268 27.0082C11.2754 27.0082 11.1109 26.9986 10.9564 26.9402C10.8213 26.8926 10.6958 26.8246 10.5508 26.8441C10.5126 26.8536 10.4836 26.8346 10.4443 26.8346C10.4149 26.7956 10.3867 26.7182 10.358 26.7182C10.1649 26.7281 10.0489 26.5641 9.88452 26.5152C9.79788 26.4858 9.73037 26.3892 9.64337 26.3602C9.4304 26.2732 9.25712 26.0897 9.01561 26.0607C8.93851 26.0508 8.86143 26.0122 8.77407 25.9836C8.80343 26.0218 8.82178 26.0508 8.85115 26.0798C8.57106 25.944 8.31043 25.7898 8.04943 25.6445C8.01125 25.6349 7.98225 25.5967 7.95325 25.5769L7.69262 25.4029C7.54762 25.4322 7.48962 25.3735 7.45034 25.3545C7.18971 25.1709 6.89053 25.0545 6.63908 24.8515C6.53262 24.7641 6.40781 24.7061 6.33072 24.5998C6.1949 24.4353 6.03081 24.3193 5.84727 24.2228C5.70263 24.1456 5.56755 24.0583 5.43245 23.9713C5.36455 23.9228 5.29663 23.8648 5.29663 23.7584C5.29663 23.6904 5.268 23.6225 5.181 23.6614C5.14245 23.6034 5.10391 23.5359 5.05545 23.5164C4.93945 23.4688 4.86236 23.3806 4.77536 23.3035C4.68836 23.2264 4.62118 23.1199 4.51474 23.0814C4.32128 23.0044 4.20528 22.8399 4.08964 22.7044C3.81874 22.3851 3.57718 22.0363 3.3261 21.6986C3.30664 21.6692 3.2681 21.6498 3.2391 21.6208C3.27764 21.7272 3.3261 21.8142 3.37418 21.9108C3.27801 21.8722 3.21047 21.8043 3.15247 21.7368C3.14256 21.7467 3.81874 22.8589 3.81874 22.8589C3.87747 22.9459 3.92518 23.0334 3.98318 23.1204C3.92499 23.1257 3.86649 23.114 3.81493 23.0864C3.76338 23.0589 3.72104 23.0168 3.69318 22.9654C3.60656 22.8113 3.50964 22.7144 3.31656 22.7341C3.29607 22.6643 3.28012 22.5932 3.26883 22.5213C3.22956 22.5213 3.20092 22.5213 3.13301 22.5114C3.26883 22.7243 3.38447 22.9078 3.51001 23.1208C3.46118 23.0914 3.43292 23.0723 3.41274 23.0628C3.58636 23.2463 3.71191 23.4786 3.934 23.595C3.98245 23.8171 4.23354 23.9235 4.29154 24.1365C4.24382 24.1265 4.20417 24.117 4.15572 24.1071C4.07863 24.0105 3.99163 23.914 3.905 23.8075C3.92409 23.8751 3.95272 23.9331 3.99163 23.9815C4.10763 24.1265 4.21409 24.2715 4.34917 24.3975C4.39763 24.4466 4.46517 24.4661 4.46517 24.5531C4.54227 24.5916 4.57163 24.6008 4.60027 24.6008C4.62009 24.6596 4.59109 24.7466 4.70672 24.7271C4.78381 24.8721 4.8609 24.8721 4.96735 24.8241C5.09327 24.9499 5.16117 24.9598 5.24781 24.8828C5.24781 24.9304 5.25735 24.9789 5.25735 25.0178C5.2959 24.9984 5.28672 24.9694 5.28672 24.9209C5.33444 24.9594 5.36381 24.9789 5.3829 24.9981C5.47944 25.1338 5.56644 25.2594 5.70153 25.3658C5.88508 25.5208 6.04952 25.6852 6.22279 25.8302C6.56125 26.111 6.93862 26.3434 7.31489 26.5559C7.77889 26.8173 8.22343 27.0977 8.69661 27.3489C9.26637 27.6491 9.87501 27.8525 10.5027 27.9975C10.7347 28.046 10.9568 28.0941 11.1892 28.1517C11.3911 28.2104 11.5944 28.2974 11.7974 28.3455C12.1065 28.4134 12.4251 28.4714 12.7342 28.5291C12.8014 28.539 12.8701 28.5488 12.9471 28.5584C13.0334 28.5778 13.1395 28.539 13.1589 28.5683C13.2074 28.6454 13.2459 28.6065 13.3039 28.597C13.3715 28.5775 13.4489 28.5775 13.526 28.5775C13.7965 28.5871 14.0572 28.6451 14.3278 28.6259C14.3865 28.6259 14.4731 28.5771 14.5215 28.6736C14.6082 28.6351 14.6567 28.6351 14.6952 28.6259C14.7055 28.7126 14.6952 28.7126 14.6769 28.7221C14.657 28.7317 14.628 28.7416 14.5895 28.7706C14.9371 28.8381 15.2657 28.8477 15.5549 28.7706C16.0578 28.8091 16.4924 28.7511 16.908 28.6061C16.9466 28.6546 16.9756 28.7221 17.0336 28.6256C17.0527 28.5962 17.1011 28.5863 17.14 28.5767C17.2267 28.5573 17.3331 28.5187 17.4102 28.5474C17.4976 28.5767 17.5266 28.4997 17.5937 28.4997C17.7101 28.4997 17.8162 28.4897 17.9227 28.4703C17.9807 28.4607 18.0387 28.4317 18.1062 28.4123C18.04 28.3795 17.9671 28.3627 17.8932 28.3635C18.0097 28.3055 18.1157 28.257 18.2222 28.2093C18.2027 28.2379 18.1832 28.2765 18.1451 28.2765H18.2798C18.2505 28.2765 18.2119 28.3635 18.1638 28.4215C18.5111 28.3345 18.8298 28.257 19.1391 28.1792C19.0328 27.9765 19.2548 28.0445 19.3323 27.9281C19.2358 27.9575 19.1391 27.9861 19.0423 28.0052C19.3708 27.8411 19.7089 27.6961 20.0371 27.5511C19.9894 27.6091 19.9306 27.6381 19.8444 27.6869C19.9024 27.6961 19.9409 27.6961 19.9699 27.7053C20.1241 27.7541 20.0859 27.6091 20.134 27.5218C20.3175 27.5218 20.3946 27.4931 20.4816 27.4638C20.5782 27.4344 20.6747 27.4058 20.7717 27.3672C20.9258 27.2997 21.0708 27.213 21.2253 27.1359C21.2547 27.1257 21.3025 27.1359 21.3413 27.1359C21.4478 27.0677 21.486 27.0097 21.515 27.0192C21.6508 27.0387 21.7462 26.9898 21.7851 26.865C21.8527 26.8162 21.9011 26.7777 21.9492 26.7483C22.1614 26.6323 22.364 26.5163 22.5769 26.4003C22.654 26.4003 22.693 26.4003 22.712 26.3904C22.8384 26.3316 22.9544 26.2648 23.07 26.1969C23.0367 26.1832 23.0046 26.1672 22.9734 26.1492C23.0696 26.1294 23.0982 26.1198 23.157 26.1004C23.3882 25.8287 23.7076 25.6452 23.9488 25.4322C24.0552 25.4227 24.0552 25.3937 24.0552 25.3746C24.0934 25.3262 24.1323 25.2682 24.1801 25.2292C24.3929 25.0358 24.6242 24.8714 24.8177 24.6684C25.0977 24.3871 25.3683 24.0968 25.6194 23.7969C25.8507 23.5259 26.0834 23.2554 26.2765 22.9555C26.547 22.5396 26.7787 22.1138 27.0202 21.6781C27.1942 21.369 27.3488 21.0595 27.5231 20.7501C27.5414 20.7207 27.5808 20.6821 27.6098 20.6821C27.8704 20.6528 28.1318 20.6345 28.3828 20.6051C28.4408 20.5955 28.5084 20.5573 28.5664 20.528C28.5371 20.4795 28.5179 20.4215 28.4893 20.3731C28.4504 20.3143 28.3924 20.2666 28.3534 20.2079C28.3153 20.1601 28.2863 20.1014 28.2573 20.0438C28.2279 19.9961 28.1993 19.9571 28.1703 19.9079C28.1116 19.8015 28.0539 19.695 28.0051 19.5798C27.9956 19.5504 27.9757 19.5027 27.9861 19.4734C28.1601 19.0963 28.2276 18.6899 28.3917 18.3126C28.5557 17.9257 28.6046 17.4903 28.6817 17.0744C28.7492 16.6779 28.7881 16.2815 28.8358 15.8851C28.8652 15.6046 28.9037 15.3337 28.9129 15.0532C28.9717 14.6083 28.9518 14.192 28.9422 13.7758C28.9327 13.4087 28.9129 13.0313 28.8946 12.6634L28.8935 12.6624ZM4.65643 24.5699C4.58889 24.4929 4.53089 24.4055 4.46334 24.3284L4.49271 24.2991C4.59807 24.4154 4.70451 24.5314 4.81061 24.6574C4.75261 24.6279 4.68507 24.6089 4.65643 24.5699ZM4.81061 24.6574C4.83997 24.6474 4.86934 24.6474 4.89797 24.6379C4.92734 24.6864 4.94643 24.7444 4.97507 24.8024C4.83997 24.7924 4.77243 24.7344 4.81097 24.6574H4.81061ZM14.8578 28.6524V28.6231C15.0414 28.6039 15.215 28.5844 15.3985 28.5654V28.5936C15.215 28.6231 15.0414 28.6414 14.8578 28.6516V28.6524ZM17.2917 28.4009C17.1569 28.4303 17.0119 28.4498 16.8768 28.4692C16.8284 28.4788 16.7704 28.5272 16.7513 28.4398C16.7318 28.4498 16.7124 28.4498 16.6933 28.4597C16.741 28.6043 16.8574 28.4883 16.9539 28.5463C16.741 28.5757 16.5391 28.5948 16.3358 28.6234V28.6043C16.3945 28.5948 16.4616 28.5848 16.5193 28.5749V28.5463C16.423 28.5349 16.3262 28.5283 16.2293 28.5268C16.201 28.5268 16.1621 28.5658 16.1331 28.5753C16.0945 28.5848 16.056 28.5948 16.0075 28.5948C15.8435 28.6043 15.6794 28.6043 15.5245 28.6138C15.5145 28.6138 15.4951 28.6043 15.4855 28.6043V28.5749C16.1328 28.4883 16.7704 28.4013 17.4175 28.3143C17.4274 28.3334 17.4274 28.3528 17.437 28.3719C17.379 28.3719 17.3404 28.3921 17.292 28.4013L17.2917 28.4009ZM17.437 28.3048C17.6594 28.2754 17.8628 28.2563 18.075 28.2277C17.6308 28.3532 17.4858 28.3723 17.4374 28.3048H17.437ZM9.02295 8.77379C9.33135 8.34796 9.65071 7.92214 9.95974 7.48714C10.0563 7.36049 10.1334 7.22505 10.2299 7.0995C10.2593 7.06059 10.2979 7.0415 10.3459 7.00259L10.3364 6.98423C10.3749 6.93541 10.4135 6.89613 10.4329 6.85795C10.4821 6.78087 10.5111 6.6935 10.5497 6.6065C10.5599 6.59153 10.5731 6.5787 10.5882 6.56869C10.7241 6.63623 10.7241 6.4916 10.7717 6.44278C10.8587 6.34587 10.9457 6.23978 11.0229 6.14287C11.0809 6.06578 11.1389 5.99787 11.1873 5.91087C11.1969 5.8815 11.1679 5.83378 11.1579 5.7945H11.1293C11.1587 5.77541 11.1873 5.74678 11.2163 5.72695C11.2259 5.72695 11.2259 5.72695 11.2354 5.71741C11.2934 5.63005 11.3514 5.54305 11.4094 5.46559C11.525 5.31141 11.6505 5.1565 11.7857 5.02141C11.7665 5.06913 11.7471 5.11795 11.7277 5.1565C11.7375 5.1565 11.7375 5.16641 11.7471 5.16641C11.8631 5.0115 11.9887 4.8665 12.1047 4.71122C12.0948 4.70205 12.0852 4.69213 12.0753 4.69213C12.0275 4.74059 11.9887 4.78905 11.9402 4.8375C11.9307 4.82759 11.9211 4.81805 11.9108 4.81805C12.0081 4.69213 12.1047 4.56659 12.2008 4.42159C12.2203 4.45095 12.2398 4.48913 12.2779 4.56659C12.3172 4.47005 12.3558 4.4025 12.3844 4.33459C12.3558 4.36395 12.3172 4.39259 12.2882 4.42195L12.2588 4.39259L12.4328 4.13195C12.6164 3.87059 12.7999 3.59968 12.9834 3.33831C13.0514 3.24176 13.1377 3.16431 13.1964 3.0674C13.3799 2.70031 13.6699 2.40958 13.8917 2.07112C13.9401 2.00358 14.0077 1.94558 14.0657 1.88758C14.1134 1.82884 14.1527 1.84866 14.1912 1.89712C14.4518 2.22603 14.7125 2.56448 14.9731 2.8934C15.1669 3.13568 15.36 3.36694 15.5435 3.61876C15.7656 3.92859 15.9781 4.23805 16.2006 4.5475C16.4518 4.90541 16.7028 5.26332 16.9444 5.63041C17.3114 6.1726 17.6591 6.71442 18.0262 7.25588C18.2967 7.65233 18.5672 8.03961 18.8278 8.43607H18.3345C17.8808 8.42689 17.4168 8.38835 16.9631 8.40744C16.3449 8.4368 15.7171 8.50435 15.099 8.5528C14.3164 8.62072 13.5242 8.62989 12.7423 8.62989C12.4614 8.62989 12.1814 8.66917 11.9017 8.68862C11.5632 8.70772 11.2347 8.72717 10.8965 8.73635C10.5001 8.75617 10.1147 8.76572 9.71822 8.77562C9.49574 8.78517 9.2641 8.77562 9.02258 8.77562L9.02295 8.77379ZM20.1028 13.2229V13.3102C20.0932 13.3102 20.0837 13.3202 20.0642 13.3202C20.0257 13.1844 19.9871 13.039 19.9387 12.9035C19.8421 12.6228 19.7357 12.3419 19.5617 12.0908C19.3679 11.8203 19.1946 11.5401 19.0008 11.2594C18.9531 11.1914 18.8848 11.1334 18.8268 11.0758C18.6238 10.8529 18.4208 10.6206 18.1601 10.4565C17.7761 10.2157 17.372 10.0083 16.9525 9.83685C16.8359 9.78683 16.7231 9.72874 16.6147 9.66285H16.846L18.4979 9.63349C18.8554 9.62434 19.2034 9.62434 19.5606 9.60485C19.6472 9.60485 19.6957 9.63421 19.7442 9.71133C19.8308 9.85633 19.9178 10.0013 20.0143 10.1467C20.0242 10.1658 20.0437 10.1945 20.0437 10.2238C20.0437 10.4367 20.0437 10.6592 20.0532 10.8721C20.0624 11.0945 20.0826 11.3074 20.0914 11.5299C20.0914 11.7524 20.0719 11.9844 20.0818 12.2164C20.0918 12.5456 20.1013 12.8845 20.1013 13.2221L20.1028 13.2229ZM9.70835 9.98375C10.1624 9.96427 10.5967 9.93527 11.0415 9.91578C11.3884 9.89639 11.7464 9.88642 12.0937 9.86739C12.2387 9.85815 12.3741 9.84899 12.5187 9.86739C12.3646 9.94515 12.2097 10.0226 12.0746 10.1191C11.9006 10.2351 11.7368 10.3898 11.5624 10.5156C11.3881 10.6411 11.2336 10.7961 11.0889 10.9605C10.9054 11.1826 10.7024 11.3761 10.5089 11.589C10.3731 11.7439 10.2189 11.8889 10.1033 12.0534C9.93917 12.2662 9.79417 12.4975 9.63965 12.7398C9.68814 11.8206 9.74614 10.9118 9.70717 9.98294L9.70835 9.98375ZM16.0168 19.2894C15.7073 19.3665 15.389 19.4539 15.0696 19.4924C14.7995 19.5314 14.519 19.5218 14.2389 19.5218C13.9905 19.5219 13.7422 19.5121 13.4945 19.4924C13.2144 19.4638 12.9342 19.4348 12.6637 19.3089C12.4314 19.2024 12.1902 19.1059 11.9589 18.9895C11.7262 18.8735 11.4946 18.7384 11.3202 18.5255C11.1954 18.3702 11.021 18.2447 10.8664 18.1092C10.8958 18.2252 10.963 18.3222 11.0694 18.3897C11.021 18.4477 10.9534 18.419 10.8566 18.2638C10.8279 18.2832 10.7989 18.2932 10.7794 18.3027C10.8088 18.2348 10.8374 18.1668 10.8664 18.1092C10.8279 18.0322 10.7794 17.9448 10.7409 17.867C10.6638 17.7414 10.5868 17.6063 10.5188 17.4804C10.4994 17.4511 10.4994 17.4224 10.4803 17.3934C10.4321 17.3376 10.3868 17.2794 10.3444 17.2191C10.2674 17.1034 10.1998 16.9778 10.1033 16.8615C10.1033 16.8908 10.1132 16.9195 10.1132 16.9584C10.1033 16.9584 10.0938 16.968 10.0938 16.968L9.89041 16.4746C9.88081 16.4746 9.88081 16.4746 9.87129 16.4841L10.0449 17.1228C10.0354 17.1228 10.0258 17.1321 10.0156 17.1321C9.98729 17.0938 9.95829 17.055 9.93844 17.0072C9.91941 16.9294 9.86141 16.9294 9.81365 16.9584C9.78429 16.9778 9.76481 17.0454 9.77477 17.0744C9.84265 17.2388 9.91977 17.4033 9.99717 17.5678C10.0163 17.6258 10.0358 17.6742 10.0648 17.7322C10.0747 17.7517 10.1037 17.7708 10.1037 17.7998C10.1425 17.8768 10.1715 17.954 10.2197 18.0222C10.3067 18.1382 10.4032 18.2542 10.4902 18.3702C10.5764 18.4862 10.6536 18.6125 10.731 18.7282C10.7406 18.7476 10.7696 18.7476 10.7787 18.7575C10.8276 18.9025 10.9917 19.0086 11.1077 18.9506C11.137 19.173 11.3782 19.2505 11.4747 19.4634C11.3799 19.4247 11.2865 19.3827 11.1947 19.3375C11.1847 19.347 11.1847 19.3566 11.1748 19.376C11.2908 19.434 11.4068 19.492 11.5125 19.5596C11.6098 19.6184 11.7064 19.6759 11.7934 19.7432C11.9094 19.8496 12.0448 19.9083 12.2081 19.9465C12.2049 19.9323 12.1986 19.9189 12.1898 19.9072C12.46 20.0332 12.7405 20.1686 12.9526 20.2743C11.9479 20.2942 10.8757 20.3136 9.76444 20.333C9.76444 20.1495 9.75493 19.9752 9.75493 19.7912C9.75493 19.7142 9.77405 19.6462 9.76408 19.5688C9.73472 19.1246 9.73472 18.679 9.67708 18.2436C9.61944 17.7796 9.61944 17.3247 9.62941 16.8597C9.63856 16.6089 9.61944 16.3479 9.60956 16.0961C9.60956 15.7577 9.60956 15.4281 9.61981 15.0903C9.61981 15.0418 9.63929 15.0033 9.65877 14.9544H9.68814C9.69729 14.9743 9.68814 15.0033 9.70644 15.0132C9.73581 15.0425 9.78429 15.0903 9.80377 15.0808C9.86141 15.0418 9.94841 15.0037 9.96781 14.9449C10.0156 14.8293 10.0354 14.7034 10.0354 14.5874C10.0354 14.5008 10.0743 14.4428 10.1124 14.3844C10.1323 14.3551 10.1418 14.3264 10.1613 14.2878C10.1228 14.2584 10.0842 14.2394 10.0358 14.2008C10.0747 14.0944 10.0651 13.9684 10.2101 13.9108C10.2292 13.9009 10.2292 13.8521 10.2395 13.8234C10.2487 13.7452 10.2578 13.6582 10.2681 13.5812C10.2872 13.6106 10.2975 13.6197 10.3158 13.6388C10.3213 13.6283 10.3279 13.6185 10.3357 13.6095C10.3357 13.5712 10.3261 13.4938 10.3357 13.4938C10.4517 13.4744 10.4032 13.3488 10.4612 13.2908C10.4704 13.2805 10.4513 13.2515 10.4513 13.2321C10.4513 13.213 10.4513 13.1844 10.4608 13.1844C10.5956 13.155 10.5764 13.01 10.6634 12.9421C10.6928 12.9226 10.702 12.8944 10.7406 12.8455C10.8177 12.9806 10.6826 13.0485 10.673 13.1451C10.8367 13.0485 10.8852 12.8165 10.7887 12.7486C10.8272 12.7193 10.8657 12.6811 10.8951 12.6421C11.0016 12.5261 11.1168 12.4198 11.2137 12.3038C11.2817 12.2171 11.3202 12.1106 11.3877 12.0236C11.4267 11.9751 11.5037 11.9366 11.5617 11.9073C11.7357 11.8111 11.8995 11.7046 12.0059 11.5401C12.0254 11.5208 12.0544 11.5016 12.083 11.4821C12.1124 11.4628 12.1704 11.4628 12.1799 11.4338C12.1898 11.4146 12.1608 11.3661 12.1414 11.3371C12.1795 11.3178 12.2185 11.2791 12.2955 11.2403C12.2661 11.2983 12.257 11.3371 12.2375 11.3761L12.2853 11.4238C12.3726 11.3563 12.5078 11.2791 12.5948 11.2211C12.5948 11.212 12.5463 11.1735 12.5463 11.1735C12.4886 11.2028 12.4016 11.2505 12.315 11.2895C12.3334 11.2601 12.3334 11.241 12.3444 11.2315C12.4791 11.1445 12.6141 11.0575 12.7591 10.9891C13.0969 10.835 13.4354 10.6801 13.7734 10.5351C13.8314 10.5058 13.9093 10.5255 13.9764 10.5255C14.0051 10.5255 14.0242 10.5255 14.0535 10.516C14.2077 10.4675 14.3626 10.4191 14.5172 10.3801C14.5843 10.3611 14.6615 10.3515 14.7301 10.3515C15.019 10.3608 15.309 10.3608 15.5986 10.3801C15.7241 10.3898 15.8401 10.4188 15.9561 10.4573C16.1048 10.5089 16.25 10.5703 16.3908 10.6408C16.5549 10.7289 16.7094 10.8251 16.8644 10.9315C17.1444 11.1151 17.405 11.3185 17.6852 11.4829C17.9557 11.6474 18.1682 11.8698 18.3422 12.1216C18.5552 12.4212 18.7963 12.6921 18.8928 13.0596L19.0375 13.6983C19.0668 13.8143 19.1344 13.9303 19.1054 14.0654C19.0566 14.3077 19.0181 14.5591 18.9795 14.801C18.9604 14.8983 18.9409 14.9956 18.9508 15.091C18.9692 15.3921 18.8536 15.6527 18.7379 15.9236C18.6991 16.0106 18.6411 16.098 18.5929 16.1945C18.6166 16.2112 18.6425 16.2243 18.6701 16.2334L18.7571 16.0594C18.7669 16.0594 18.7669 16.0594 18.7765 16.0693C18.7281 16.2044 18.6895 16.3498 18.6407 16.4852C18.5254 16.7852 18.4094 17.0946 18.2644 17.3846C18.1873 17.549 18.0515 17.6845 17.9553 17.8398C17.8592 17.9749 17.7817 18.1199 17.6852 18.2458C17.5982 18.3522 17.5115 18.4587 17.3952 18.5358C17.1345 18.7292 16.864 18.9227 16.5839 19.0776C16.4102 19.1841 16.2072 19.2421 16.0141 19.2905L16.0168 19.2894ZM10.8675 18.7755L10.858 18.7854C10.8378 18.7758 10.8088 18.7663 10.7898 18.7468L10.5578 18.3981C10.5387 18.3695 10.5284 18.3405 10.5387 18.3019C10.6451 18.4664 10.7515 18.6213 10.8672 18.7755H10.8675ZM16.8768 20.1007C17.3111 19.9172 17.6687 19.6565 17.9965 19.3562C18.0452 19.3078 18.0933 19.2597 18.1513 19.2204C18.5573 18.9693 18.8561 18.621 19.1271 18.2341C19.4361 17.7891 19.6391 17.2862 19.8906 16.8123C19.9076 16.7756 19.9269 16.7401 19.9482 16.7059C19.9288 17.8086 20.0547 18.8918 20.1994 19.985C19.108 20.0236 17.9968 20.0622 16.8764 20.101L16.8768 20.1007ZM26.6718 19.8107C26.6623 19.8302 26.6424 19.8496 26.6333 19.8694C26.6234 19.8496 26.6234 19.8206 26.6138 19.7813C26.5558 19.9366 26.4303 19.8592 26.3433 19.8592C25.822 19.869 25.2905 19.869 24.7685 19.869C24.2663 19.869 23.7546 19.869 23.2524 19.8778C23.0879 19.8778 22.9139 19.9164 22.7495 19.9263C22.3538 19.9454 21.9577 19.9557 21.5616 19.9648C21.5322 19.9648 21.5036 19.9172 21.4552 19.8782C21.4381 19.9087 21.4187 19.9378 21.3972 19.9652C21.3868 19.9462 21.3678 19.927 21.3483 19.898C21.3388 19.9274 21.3288 19.956 21.3189 19.9752H21.291C21.2716 19.84 21.233 19.7145 21.233 19.5787C21.233 19.2887 21.2624 18.9987 21.2716 18.7079C21.2815 18.5728 21.2716 18.4473 21.2716 18.3211C21.3105 18.3504 21.3395 18.3698 21.378 18.3981C21.3972 18.3603 21.4166 18.3313 21.436 18.3027C21.436 18.3027 21.4166 18.2924 21.3972 18.2733C21.4155 18.2634 21.4353 18.244 21.4353 18.2344C21.4448 18.2051 21.4647 18.1764 21.4647 18.1573C21.4647 18.0894 21.4448 18.0314 21.4353 17.9738C21.4448 17.9738 21.4544 17.9738 21.4647 17.9635L21.5223 18.2535H21.5517C21.5128 18.1863 21.6383 18.128 21.5322 18.0508C21.5227 18.041 21.5418 17.983 21.5418 17.954C21.5124 17.8963 21.494 17.8383 21.4647 17.7608C21.4742 17.7513 21.5032 17.7414 21.5322 17.7315C21.4937 17.7124 21.4647 17.6933 21.4357 17.6838C21.5322 17.5964 21.5322 17.548 21.4452 17.4514C21.465 17.4422 21.4842 17.4422 21.4842 17.433C21.4842 17.3457 21.4842 17.2587 21.465 17.1724C21.4456 17.0748 21.4944 16.9595 21.349 16.9008C21.3586 16.9302 21.3685 16.9492 21.3876 16.9778C21.3876 16.9778 21.3582 16.9878 21.3296 17.0072C21.204 16.8908 21.2819 16.7356 21.2525 16.5619C21.32 16.5814 21.3685 16.6008 21.4166 16.6207C21.3972 16.5524 21.349 16.475 21.32 16.388H21.2808V15.7492C21.2808 15.7591 21.3483 15.7591 21.3872 15.7691C21.3872 15.7591 21.3964 15.7496 21.3964 15.7397C21.3671 15.7011 21.3285 15.6626 21.2899 15.6141L21.3094 15.5947C21.2323 15.4985 21.2708 15.3634 21.2708 15.3341V14.6567C21.3678 14.7537 21.2232 14.8792 21.3678 14.9372V14.8407H21.3578C21.3483 14.6957 21.3483 14.5507 21.3388 14.4053H21.3197C21.3098 14.4251 21.3098 14.4347 21.2998 14.4541H21.2808L21.3388 12.1422C21.4353 12.2678 21.5414 12.3845 21.6089 12.5093C21.8314 12.916 22.1211 13.2644 22.3916 13.6319C22.6236 13.9512 22.8357 14.2992 23.0487 14.6281C23.3093 15.0246 23.5604 15.4211 23.8214 15.8175C24.0145 16.1178 24.2179 16.4177 24.4198 16.708C24.6033 16.9687 24.7971 17.2205 24.9902 17.4724C25.1539 17.6948 25.3279 17.9172 25.492 18.1397C25.6854 18.4106 25.8786 18.6811 26.072 18.9425C26.1682 19.0776 26.2747 19.2131 26.3804 19.3485C26.4391 19.4256 26.5257 19.4843 26.5837 19.5321C26.5746 19.5321 26.5647 19.5321 26.5456 19.5225C26.5749 19.5611 26.5932 19.5901 26.6131 19.6095C26.7196 19.6675 26.7291 19.7255 26.6711 19.8128L26.6718 19.8107ZM27.1644 17.3931V17.3251C27.1644 17.3442 27.174 17.3729 27.1644 17.3927V17.3931ZM27.493 13.1274C27.4831 13.1274 27.4254 13.0687 27.4159 13.0592C27.406 13.0886 27.4159 13.1172 27.3964 13.1561C27.3866 13.1274 27.3194 13.1371 27.3194 13.1084C27.3094 13.2434 27.377 13.3789 27.3671 13.5144C27.3964 13.4949 27.5121 13.4851 27.5411 13.4564C27.551 13.4659 27.5704 13.4754 27.5801 13.4754C27.3866 13.6208 27.435 13.7654 27.522 13.9307C27.5411 13.9688 27.5991 14.0463 27.5411 14.1238C27.522 14.1432 27.551 14.2008 27.5606 14.2497H27.5888V14.2681L27.5018 14.2974C27.4827 14.2681 27.3671 14.2108 27.3671 14.1616V14.6557C27.4637 14.685 27.4637 14.8201 27.5022 14.888C27.5191 14.8645 27.5323 14.8384 27.5414 14.8109L27.5514 14.8198C27.5414 14.8778 27.5319 14.9358 27.5124 14.9941C27.4934 15.0808 27.4739 15.1582 27.4648 15.2452C27.4648 15.2548 27.4831 15.2745 27.4831 15.2838C27.3774 15.526 27.4354 15.7962 27.3968 16.0473C27.3674 16.2308 27.3968 16.4254 27.3774 16.6185C27.3576 16.7829 27.3187 16.9569 27.2804 17.1214C27.2706 17.1507 27.2511 17.1599 27.2034 17.1794C27.2224 17.0634 27.2129 16.9859 27.1934 16.8795C27.1832 16.8795 27.0577 16.8119 27.0477 16.8119C27.0477 16.9477 27.1248 17.1313 27.1542 17.2855C27.1248 17.2759 27.0092 17.2084 27 17.2084C26.9802 17.3244 26.9802 17.4793 26.9707 17.6049C26.9607 17.7017 26.8741 17.7884 26.8642 17.8949C26.8642 17.9536 26.9317 17.9917 26.9222 18.0887H26.9992C26.9992 17.8956 27.0867 17.7216 27.0867 17.5182H27.1152C27.1252 17.5377 27.1542 17.5571 27.1447 17.5667C27.1252 17.6731 27.0859 17.7891 27.0962 17.8956C27.0962 17.9536 27.1439 18.0116 27.1256 18.0791C27.1057 18.1378 27.0962 18.1955 27.0862 18.2825C27.0764 18.2341 27.0668 18.215 27.0668 18.186C27.0572 18.186 26.9702 18.1761 26.9604 18.1761C26.9508 18.2341 27.0282 18.2921 27.0184 18.3405C27.0088 18.3501 26.9992 18.3501 26.9798 18.36L26.6612 17.8952C26.4094 17.5281 26.1582 17.1599 25.9072 16.7829C25.842 16.6906 25.7838 16.5938 25.7328 16.4929C25.434 15.9781 25.1017 15.4836 24.738 15.0124C24.4583 14.6549 24.2351 14.2672 23.9744 13.8911C23.7337 13.5331 23.4921 13.1847 23.2505 12.8265C23.1635 12.7108 23.0575 12.6044 22.98 12.4785C22.7293 12.082 22.5065 11.6756 22.2561 11.2791C22.0432 10.9499 21.812 10.6305 21.5895 10.3115C21.5124 10.2051 21.4353 10.0887 21.3575 9.9727C21.3454 9.95249 21.3388 9.92947 21.3384 9.90591C21.3189 9.69294 21.2995 9.48006 21.2899 9.27706C21.2899 9.08358 21.3094 8.89015 21.3094 8.68679V8.51279C21.3094 8.46433 21.3186 8.42579 21.3186 8.37696C21.3277 8.36779 21.3377 8.34834 21.3472 8.33879C21.0671 8.33879 20.7771 8.32852 20.4971 8.33879C20.3135 8.34796 20.217 8.27052 20.0914 8.13506C19.7243 7.71914 19.4538 7.24523 19.1352 6.80032C18.8347 6.37701 18.5288 5.95764 18.2174 5.54231C17.966 5.20386 17.7145 4.87494 17.4638 4.53648C17.1834 4.14958 16.9131 3.76266 16.6231 3.37575C16.2718 2.90929 15.9176 2.44505 15.5605 1.98302C15.3952 1.77011 15.2117 1.56711 15.0281 1.34428C15.1541 1.3641 15.2705 1.3832 15.3861 1.3931L15.8501 1.42247C16.1977 1.45074 16.5454 1.4702 16.8926 1.51792C17.1826 1.5572 17.4726 1.6152 17.7722 1.66328C18.4102 1.76974 19.0378 1.94411 19.6465 2.14711C20.0041 2.26311 20.3513 2.41802 20.7001 2.56302C21.4819 2.88239 22.226 3.26929 22.9602 3.67529C23.1914 3.80121 23.3273 4.00421 23.5006 4.18812C23.752 4.44948 24.0034 4.71048 24.2447 4.98103C24.5244 5.3004 24.785 5.62931 25.0559 5.95822C25.2971 6.24822 25.5478 6.53822 25.7901 6.82895C25.8671 6.91595 25.9259 7.02241 25.9928 7.11895C26.1469 7.35132 26.3213 7.57414 26.4564 7.82523C26.5525 8.00952 26.6105 8.22242 26.6781 8.42542C26.7742 8.72533 26.8712 9.01534 26.9681 9.31521C27.0352 9.5377 27.0928 9.77042 27.1413 10.0017C27.1802 10.1569 27.1707 10.3211 27.2185 10.4752C27.2772 10.6794 27.2185 10.9011 27.2772 11.1048C27.2863 11.1243 27.2955 11.1533 27.3058 11.1728C27.3443 11.2109 27.3733 11.2498 27.3153 11.3078C27.3062 11.3174 27.3062 11.3555 27.3153 11.3849C27.3352 11.3658 27.3447 11.3464 27.3642 11.3174C27.3642 11.3368 27.3733 11.3468 27.3733 11.3559C27.3733 11.3941 27.3635 11.4329 27.3733 11.4715C27.3733 11.4906 27.3925 11.5192 27.402 11.5391C27.4215 11.5192 27.4405 11.5097 27.4791 11.4803C27.5661 11.8096 27.576 12.1385 27.576 12.4769C27.576 12.7964 27.6336 13.1158 27.4988 13.4251C27.5275 13.3188 27.46 13.2214 27.489 13.1249L27.493 13.1274Z" fill="white"/>
<path fill-rule="evenodd" clip-rule="evenodd" d="M21.3204 16.8894C21.3296 16.8894 21.3396 16.8992 21.3396 16.8992L21.3296 16.8883C21.3296 16.8791 21.3296 16.8791 21.3201 16.8883L21.3204 16.8894ZM22.8465 26.4469C22.74 26.524 22.6335 26.5919 22.4985 26.6209C22.4881 26.6113 22.4881 26.6015 22.4786 26.5915C22.5851 26.524 22.7007 26.4565 22.8071 26.3885C22.8171 26.4069 22.8365 26.4267 22.8461 26.4461L22.8465 26.4469ZM4.73355 13.3389C4.84 13.2042 4.94646 13.0687 5.06173 12.9332C5.07091 12.9428 5.14799 12.9626 5.15791 12.9718C5.05145 13.1076 4.90645 13.2912 4.80036 13.4362C4.78054 13.4167 4.75154 13.3492 4.73245 13.3392L4.73355 13.3389ZM1.98957 18.0798C1.91247 17.9154 1.83539 17.7411 1.7583 17.5769C1.78517 17.5599 1.81434 17.5468 1.84493 17.5381C1.95139 17.6922 1.99911 17.8757 2.07693 18.0409C2.07693 18.0409 1.99984 18.0795 1.98993 18.0795L1.98957 18.0798ZM4.45346 13.4362C4.39546 13.5236 4.33746 13.6204 4.27946 13.7078C4.26992 13.6976 4.16346 13.746 4.15392 13.7364C4.21192 13.6494 4.35655 13.4942 4.41455 13.4076C4.42446 13.4171 4.434 13.427 4.45346 13.4369V13.4362ZM21.8131 26.8441C21.8222 26.8441 21.8222 26.8346 21.8322 26.8346C21.8997 26.8441 21.9768 26.8536 22.0542 26.8536C21.928 26.9406 21.8505 26.9307 21.812 26.8441H21.8131ZM4.47181 13.8426C4.4821 13.8132 4.50118 13.7846 4.52064 13.7556C4.53973 13.7556 4.56836 13.7456 4.56836 13.7456C4.60764 13.6781 4.60764 13.6296 4.64618 13.5716C4.63664 13.5621 4.62673 13.5621 4.61681 13.5522C4.55918 13.5918 4.50118 13.6403 4.44318 13.6788C4.46264 13.6979 4.46264 13.7082 4.46264 13.7273C4.38555 13.7174 4.35618 13.7566 4.31764 13.8624C4.3081 13.8918 4.25964 13.9013 4.21118 13.9394C4.20164 13.9593 4.1921 14.0078 4.17264 14.0558L4.18255 14.0661C4.1631 14.0855 4.1341 14.0955 4.1341 14.0955C4.0761 14.1531 4.00855 14.2019 3.95055 14.2595C3.941 14.2889 3.93146 14.3175 3.93146 14.3465C3.99938 14.279 4.115 14.1531 4.202 14.0756L4.21192 14.0855C4.25046 14.0275 4.27946 13.9695 4.31838 13.9115C4.32755 13.9211 4.32755 13.9306 4.33746 13.9409C4.3081 14.018 4.27946 14.1046 4.25046 14.1821C4.23027 14.1916 4.20127 14.2115 4.20127 14.2015C4.16273 14.2309 4.13373 14.2691 4.09481 14.2981L3.92118 14.4141C3.82464 14.5011 3.7281 14.5782 3.62164 14.6655C3.5541 14.772 3.48655 14.8685 3.40873 14.9945C3.5251 14.9651 3.5541 15.0139 3.54455 15.1109C3.67964 15.1299 3.68955 15.0239 3.7281 14.9464C3.73764 14.9265 3.74755 14.8876 3.76664 14.8781C3.85364 14.801 3.95018 14.7335 4.04673 14.656C4.06618 14.6365 4.06618 14.5973 4.06618 14.5686C4.06618 14.5591 4.01736 14.5591 3.98836 14.5492C4.07536 14.4523 4.20127 14.2885 4.28791 14.1821C4.33636 14.1528 4.38445 14.1138 4.38445 14.0848C4.37491 13.9784 4.44245 13.9498 4.52027 13.9108C4.48136 13.8814 4.47145 13.8532 4.47145 13.8436L4.47181 13.8426Z" fill="white"/>
<path fill-rule="evenodd" clip-rule="evenodd" d="M4.66556 13.7362C4.62702 13.8038 4.58847 13.8618 4.54992 13.9296L4.49192 13.9003C4.45338 14.1224 4.31792 14.3158 4.18284 14.3544C4.22138 14.3738 4.25992 14.3933 4.28929 14.3838C4.31792 14.3738 4.33702 14.325 4.35647 14.2964L4.6171 13.919L4.70447 13.7737L4.66592 13.7351L4.66556 13.7362ZM1.44912 17.9827C1.49758 17.9827 1.54604 17.9922 1.60331 17.9922C1.60331 17.9537 1.65212 17.9628 1.65212 17.9247H1.6815C1.6815 17.9732 1.69104 18.0117 1.69104 18.0605H1.4884C1.4785 18.0505 1.43995 17.9922 1.4495 17.9827H1.44912ZM1.37204 17.5378C1.34267 17.5084 1.29495 17.4798 1.29495 17.4508C1.28504 17.4125 1.31404 17.3645 1.34267 17.316C1.3625 17.3835 1.37204 17.4415 1.39112 17.5095C1.38122 17.5187 1.37167 17.5285 1.37167 17.5382L1.37204 17.5378ZM1.61358 16.9185C1.65212 17.0162 1.69067 17.1225 1.72958 17.2195C1.70218 17.2286 1.67622 17.2416 1.6525 17.258C1.61395 17.1612 1.5655 17.0547 1.52695 16.9582C1.55304 16.9395 1.58263 16.9263 1.61395 16.9192L1.61358 16.9185ZM23.1177 26.1669C23.1653 26.1478 23.2234 26.1376 23.3012 26.1192C23.2138 26.1864 23.1462 26.2348 23.0882 26.2928C23.0784 26.2833 23.0688 26.2734 23.0589 26.2734C23.0784 26.2348 23.0978 26.2058 23.1177 26.1669ZM11.2438 5.72705C11.3014 5.68815 11.3502 5.65915 11.4078 5.62061L11.427 5.63969C11.3682 5.71678 11.3205 5.79387 11.2526 5.89115C11.2431 5.82397 11.2431 5.78469 11.2331 5.73697C11.2236 5.73697 11.2331 5.73697 11.2431 5.72743L11.2438 5.72705ZM14.074 10.6215C14.161 10.5825 14.248 10.5444 14.3542 10.4955C14.3445 10.5535 14.3445 10.5925 14.3445 10.6314C14.3135 10.62 14.2807 10.6134 14.2477 10.6115C14.1897 10.6215 14.0832 10.6989 14.0348 10.7085C14.0255 10.7085 14.0737 10.6314 14.0737 10.6215H14.074ZM21.3204 18.8244C21.3394 18.9209 21.523 18.9694 21.3394 19.0659C21.3688 19.0861 21.3971 19.0954 21.4261 19.1151C21.4261 19.1251 21.4166 19.1445 21.407 19.1541C21.3876 19.1632 21.349 19.1827 21.3299 19.1724C21.32 19.1724 21.3006 19.1342 21.3006 19.1148C21.3006 19.0278 21.3104 18.9408 21.32 18.8248L21.3204 18.8244Z" fill="white"/>
</svg>
