<svg width="287" height="159" viewBox="0 0 287 159" fill="none" xmlns="http://www.w3.org/2000/svg">
<path fill-rule="evenodd" clip-rule="evenodd" d="M163.668 132.45C162.863 132.206 161.593 131.821 160.238 131.409C160.508 131.165 160.693 130.995 160.995 130.721C160.652 130.497 160.172 130.275 159.908 129.988C159.647 129.703 159.6 129.353 159.463 129.036C159.087 128.963 158.729 128.893 158.401 128.829V128.056C158.817 127.943 159.239 127.827 159.77 127.681C159.49 127.358 159.236 127.065 158.936 126.721C159.508 126.513 160.067 126.135 160.601 126.148C162.396 126.19 164.257 125.83 165.994 126.372C166.238 126.449 166.562 126.464 166.851 126.468C168.949 126.499 171.008 126.512 173.117 126.777C175.738 127.106 178.504 127.046 181.201 127.195C182.159 127.247 183.092 127.432 184.045 127.537C184.901 127.63 185.91 127.316 186.603 127.872C186.676 127.931 186.992 127.898 187.193 127.895C189.689 127.848 192.029 128.301 194.437 128.564C196.639 128.803 198.857 129.006 201.029 129.326C205.501 129.985 210.027 130.507 214.438 131.334C216.142 131.654 217.916 131.989 219.721 132.188C220.202 132.241 220.607 132.517 221.569 132.898H218.591C218.581 132.97 218.571 133.043 218.559 133.117C219.594 133.337 220.627 133.558 221.8 133.808C221.559 134.053 221.33 134.285 221.127 134.491C221.339 134.674 221.554 134.856 221.867 135.123C220.768 135.575 219.775 135.983 218.772 136.394C218.625 136.185 218.482 135.981 218.268 135.677C217.837 135.788 217.422 135.895 216.998 136.004C216.646 135.925 216.214 135.828 215.782 135.731C215.345 135.635 214.906 135.538 214.656 135.483C213.916 135.596 213.281 135.692 212.738 135.775C212.239 135.488 211.873 135.279 211.509 135.069C209.676 135.874 208.015 134.901 206.258 134.892C205.901 134.889 205.549 134.677 205.192 134.674C203.009 134.657 200.971 134.274 198.878 133.983C196.962 133.715 194.93 133.731 192.955 133.588C191.794 133.505 190.645 133.364 189.495 133.236C188.342 133.108 187.027 133.553 186.008 132.906C185.913 132.845 185.618 132.89 185.415 132.882C182.197 132.764 178.976 132.665 175.763 132.517C174.497 132.458 173.256 132.24 171.99 132.184C170.656 132.124 169.304 132.138 167.966 132.179C166.702 132.218 165.444 132.334 163.668 132.45" fill="url(#paint0_linear)"/>
<path fill-rule="evenodd" clip-rule="evenodd" d="M62.5252 129.463C61.3644 129.06 60.5389 128.773 59.7373 128.494C60.6947 127.002 60.6947 127.002 57.5838 126.134C57.2188 126.344 56.8539 126.553 56.2876 126.879C56.0341 126.654 55.7805 126.429 55.4178 126.108C56.3911 125.58 56.3638 124.906 55.2518 124.28C56.1603 123.818 56.9244 123.429 57.9147 122.925C58.2319 122.916 58.9266 122.896 59.6532 122.876C59.7282 122.675 59.7885 122.512 59.851 122.344C60.0056 122.298 60.1762 122.204 60.3456 122.205C61.2495 122.212 62.0898 121.939 62.8845 121.889C66.5354 121.662 70.0579 120.868 73.8236 121.103C74.7366 121.16 76.0101 120.621 76.5911 120.833C77.5894 121.197 78.1567 120.697 78.9345 120.754C79.9498 120.829 81.0027 120.819 82.0226 120.754C82.5604 120.72 83.0606 120.495 83.5359 120.367C83.8509 120.533 84.0726 120.65 84.1135 120.671C86.1908 120.273 88.0851 120.279 90.3818 120.731C90.4614 120.702 90.8684 120.434 91.2687 120.437C94.2192 120.462 97.1652 120.577 100.115 120.59C101.949 120.599 103.783 120.457 105.619 120.43C106.158 120.422 106.703 120.578 107.39 120.679C107.438 120.654 107.655 120.541 107.862 120.434C108.096 120.553 108.321 120.668 108.578 120.799C110.449 120.187 112.411 120.448 114.361 120.467C114.361 120.717 114.361 120.835 114.361 120.954C113.847 121.105 113.334 121.257 112.758 121.426C112.628 121.361 112.413 121.252 112.182 121.134C109.955 121.808 107.465 121.324 105.107 121.744C105.736 121.777 106.442 121.928 106.975 121.813C107.739 121.649 108.182 122.389 109.048 121.929C109.365 121.761 110.278 121.964 111.32 122.02C111.288 122.029 111.684 121.897 112.038 121.777C112.382 121.958 112.603 122.074 112.825 122.19C113.487 121.627 114.47 121.893 115.325 121.859C115.632 122.036 115.925 122.204 116.336 122.44C115.616 122.52 114.989 122.592 114.361 122.662C114.367 122.726 114.371 122.789 114.377 122.853C115.151 122.886 115.927 122.918 117.014 122.963C116.694 123.556 116.42 124.063 116.076 124.703C113.359 124.547 110.605 124.389 108.257 124.254C107.355 124.748 106.772 125.069 106.243 125.358C104.813 125.155 104.274 124.498 103.603 123.921C103.147 124.187 102.786 124.398 102.51 124.561C101.53 124.462 100.625 124.371 99.8951 124.298C99.4016 124.752 99.0423 125.082 98.7058 125.392H96.6615C96.3624 125.595 96.0327 125.819 95.6768 126.061H92.8502C92.7547 125.905 92.6297 125.699 92.4034 125.329C91.1686 125.538 89.9156 125.75 88.7491 125.948C87.8963 125.885 87.0595 125.798 86.2158 125.766C85.3938 125.735 84.3636 125.583 83.7872 125.801C82.9197 126.129 82.093 126.086 81.2107 126.117C80.308 126.148 79.254 126.039 78.549 126.273C77.8884 126.492 77.3336 126.013 76.6332 126.425C76.1977 126.679 74.939 126.472 74.0306 126.725C74.6571 126.795 75.2847 126.865 76.051 126.951C74.4592 127.641 73.2506 126.842 71.926 126.783C70.416 126.716 69.3529 127.396 67.893 127.362C68.2773 127.47 68.6616 127.577 69.0141 127.676C68.8993 127.749 68.7708 127.891 68.6707 127.885C68.1909 127.854 67.7202 127.776 67.2427 127.728C66.6412 127.666 66.034 127.618 65.3814 127.742C65.7816 127.852 66.1807 127.962 66.9721 128.18H63.9533C63.461 128.622 63.0494 128.991 62.5252 129.463" fill="url(#paint1_linear)"/>
<path fill-rule="evenodd" clip-rule="evenodd" d="M64.6126 33.2449C65.1822 33.4532 65.9235 33.7249 66.8138 34.0513C66.2714 34.1571 65.9121 34.2276 65.5142 34.3053C65.5506 34.3857 65.546 34.5195 65.6302 34.5411C66.3237 34.7232 67.0344 34.8832 67.7404 35.0504C66.9502 35.6726 68.4852 36.2466 67.7052 36.7814C67.2083 37.1451 66.7115 37.5081 66.1828 37.8947C63.3357 37.1353 60.4056 37.2861 57.678 37.5088C55.5768 37.6812 53.4984 37.6864 51.4176 37.8059C50.3659 37.8673 49.4051 38.31 48.267 38.1382C47.827 38.0723 47.412 37.9508 46.9856 37.8555C46.3102 38.897 44.8185 38.9127 42.9834 38.8088C42.7366 38.406 42.4831 37.9939 42.2977 37.6923C41.5371 37.2881 40.8685 36.9322 40.0397 36.4928C39.9271 36.6175 39.6622 36.9113 39.6121 36.9668C36.9379 37.2718 34.6355 36.7174 32.4377 37.4748C32.1773 37.3651 31.8657 37.2345 31.5292 37.0941C30.5616 37.2293 29.5258 37.3743 28.5059 37.5179C28.2353 37.1947 28.0443 36.9642 27.793 36.6632C27.6133 36.9472 27.4837 37.1523 27.2654 37.4957C26.4763 37.3645 25.6702 37.2306 24.7606 37.0791C24.5855 37.2848 24.3854 37.5205 24.1068 37.8477C23.6896 37.7282 23.2745 37.6106 22.8379 37.4859C21.577 38.1069 19.9818 37.6309 18.7709 37.7869C18.1614 37.6106 17.7487 37.4898 17.2655 37.3495C17.0756 37.6544 16.9471 37.8601 16.8505 38.0135C14.4514 38.1833 12.0944 38.3498 9.7806 38.5137C9.61687 38.771 9.48725 38.9766 9.30533 39.2633C9.05292 38.9655 8.8619 38.739 8.65269 38.4915C7.29852 38.4712 7.02337 39.3142 5.87045 39.6094C5.12799 39.3665 4.29456 39.0935 3.43954 38.8141C3.38724 38.4934 3.34062 38.2127 3.28945 37.9064C2.42988 37.6583 0.893788 37.9423 0.868774 36.9707C1.49981 36.7259 2.12971 36.481 2.91197 36.1774C2.39008 36.0781 2.04102 36.0109 1.66809 35.9404C1.72835 35.1947 2.73118 34.9067 3.85909 34.5815C4.69138 34.5815 6.01144 34.8062 6.67886 34.5221C7.43496 34.2009 8.10693 34.5959 8.83234 34.2701C9.50658 33.9678 10.7755 34.4379 11.6794 33.9364C11.9534 33.7836 12.8187 33.7595 13.1268 33.8933C13.9761 34.2629 14.6731 33.8894 15.4315 33.8744C16.4628 33.8541 17.4952 33.8692 18.5276 33.8692C19.4565 33.8692 20.606 34.0683 21.2655 33.8261C22.4775 33.3814 23.6918 33.7869 24.9061 33.5623C26.1216 33.3383 27.5827 33.5975 28.897 33.4891C30.1978 33.382 31.3598 33.8039 32.7503 33.5623C34.0749 33.3331 35.6201 33.559 37.0573 33.5002C38.4251 33.4434 39.7838 33.2939 41.1357 33.1515C42.4899 33.0099 43.9566 33.4911 45.2562 32.827C45.6019 32.6514 46.4535 32.8009 47.0732 32.8009C51.2016 32.8009 55.3312 32.7611 59.4574 32.8205C61.122 32.8447 62.7786 33.0869 64.6126 33.2449" fill="url(#paint2_linear)"/>
<path fill-rule="evenodd" clip-rule="evenodd" d="M158.184 148.678C157.184 149.029 156.605 149.231 156.034 149.43C156.797 149.618 157.624 149.823 158.581 150.059C158.355 150.38 158.213 150.583 157.991 150.897C159.617 151.8 157.196 152.292 156.987 153.197C155.441 152.741 153.948 152.302 152.396 151.845C152.33 151.956 152.213 152.152 152.014 152.489C147.21 151.885 142.29 151.63 137.308 151.511C137.934 151.44 138.562 151.37 139.187 151.3C139.183 151.244 139.177 151.189 139.171 151.134H134.383C134.262 151.327 134.132 151.532 133.989 151.759H132.737C130.571 151.759 128.397 151.698 126.239 151.777C124.262 151.849 122.301 152.071 119.906 152.261C118.766 152.566 117.466 153.365 115.176 153.126C114.86 152.907 114.348 152.552 113.722 152.117C113.805 152.022 113.979 151.827 114.155 151.628C113.25 150.852 112.297 150.036 111.437 149.299C111.919 148.436 112.345 147.673 112.881 146.71C114.319 146.004 116.492 145.769 118.585 145.736C124.462 145.644 130.346 145.687 136.226 145.721C137.277 145.726 138.324 145.946 139.375 146.059C140.429 146.172 141.604 145.809 142.57 146.376C142.774 146.497 143.354 146.408 143.76 146.417C147.021 146.488 153.3 147.505 156.795 148.517C157.043 148.588 157.355 148.585 158.184 148.678" fill="url(#paint3_linear)"/>
<path fill-rule="evenodd" clip-rule="evenodd" d="M206.268 33.0014C205.799 33.0948 205.44 33.1659 204.797 33.2939C205.548 33.6152 206.163 33.879 206.885 34.1878C206.677 34.3752 206.47 34.5607 206.23 34.7761C206.579 34.8715 206.978 34.9818 207.381 35.0928V35.4853C206.99 35.5904 206.57 35.7033 206.15 35.8163C206.364 35.9547 206.554 36.0788 206.744 36.2029C206.203 36.3635 205.691 36.5163 204.958 36.7344C200.594 36.5751 195.937 37.0694 191.297 36.5418C191.693 36.6515 192.09 36.7612 192.5 36.8748C190.651 37.6231 188.912 36.372 187.101 36.7931C187.056 36.8408 186.965 36.8937 186.984 36.9218C187.018 36.9727 187.128 37.0041 187.19 37.0511C187.291 37.1301 187.378 37.215 187.703 37.5029C186.234 37.3658 185.057 37.2561 183.698 37.1288C184.04 37.356 184.224 37.4781 184.411 37.6022C183.392 38.248 182.501 37.3273 181.253 37.4598C181.53 37.674 181.672 37.785 181.922 37.9789C180.334 38.2747 178.801 38.7246 177.207 38.8134C175.385 38.9159 174.563 40.0083 172.924 39.9594C172.589 40.6842 172.294 41.326 171.979 42.0077H169.778C169.545 41.8745 168.983 41.6949 169.003 41.5402C169.149 40.3792 166.924 39.817 167.014 38.6032C167.166 36.5313 168.619 34.925 172.049 33.879C174.438 33.1503 176.952 32.6429 179.68 32.402C181.251 32.2635 182.819 32.1728 184.381 32.0468C185.95 31.9201 187.481 31.6863 189.094 31.7248C190.641 31.7614 192.193 31.7327 193.742 31.7327C195.394 31.7327 197.068 31.6386 198.695 31.7555C200.911 31.9135 203.098 32.2172 205.281 32.4986C205.625 32.543 205.887 32.7996 206.268 33.0014" fill="url(#paint4_linear)"/>
<path fill-rule="evenodd" clip-rule="evenodd" d="M136.546 103.629H134.434C134.1 102.814 133.788 102.056 133.452 101.235H132.017C130.98 100.246 132.973 99.447 132.289 98.6014C133.397 97.6736 135.024 97.4888 136.67 97.253C139.971 96.781 143.371 96.7581 146.681 96.4675C150.875 96.1006 155.027 96.1489 159.155 96.2521C164.137 96.3768 169.137 96.7437 173.939 97.6331C174.387 97.716 174.75 97.953 175.281 98.1718C174.801 98.2625 174.452 98.3291 174.065 98.4029C174.088 98.4819 174.06 98.6066 174.144 98.6406C174.859 98.9364 175.594 99.2165 176.383 99.5247C176.171 99.6729 176.001 99.7931 175.837 99.908C176.059 100.132 176.287 100.362 176.54 100.62C175.98 100.77 175.562 100.882 175.146 100.995C175.36 101.136 175.545 101.258 175.743 101.389C174.39 101.728 173.329 102.087 171.606 101.615C169.912 101.151 167.711 101.239 165.725 101.199C162.834 101.14 159.937 101.202 157.044 101.175C155.87 101.165 154.67 101.346 153.537 100.86C153.129 100.684 152.242 100.876 151.445 100.904C151.795 101.138 151.979 101.26 152.399 101.54C150.934 101.54 149.716 101.589 148.515 101.525C147.504 101.471 146.514 101.285 145.066 101.1C145.585 101.457 145.76 101.578 146.015 101.754C144.551 102.127 143.199 101.809 141.427 101.377C141.877 101.805 142.04 101.958 142.398 102.3C141.187 102.153 140.226 102.037 138.962 101.885C139.385 102.172 139.562 102.293 139.901 102.524C139.123 102.568 138.473 102.604 137.674 102.648C137.33 102.948 136.914 103.309 136.546 103.629" fill="url(#paint5_linear)"/>
<path fill-rule="evenodd" clip-rule="evenodd" d="M100.925 100.412C100.52 100.179 100.228 100.011 99.6959 99.7058C99.5151 100.043 99.3332 100.382 99.3002 100.444C97.3241 100.273 96.0086 100.16 94.2257 100.006C94.7169 100.371 94.8716 100.487 95.1467 100.692C94.8045 100.754 94.5077 100.809 94.2076 100.864C93.9597 100.576 93.755 100.338 93.4094 99.9363C92.991 100.265 92.6931 100.499 92.3736 100.751C90.327 100.633 88.1826 100.51 86.1746 100.396C85.9666 100.59 85.8699 100.643 85.8881 100.672C85.9211 100.722 86.0325 100.754 86.0939 100.801C86.1985 100.88 86.2895 100.965 86.609 101.238C84.7579 101.075 83.1832 100.937 81.2002 100.762C81.7073 101.105 81.8881 101.227 82.0689 101.349C80.8648 101.949 79.7449 101.268 78.2747 101.119C78.6158 101.448 78.7739 101.599 78.9763 101.795C77.5118 102.229 76.1861 101.055 74.708 101.716C75.1014 101.825 75.4891 101.934 76.0724 102.098C74.9115 102.244 73.9121 102.369 72.4533 102.551C71.0377 102.176 69.9075 101.38 69.5551 100.152C69.0923 100.132 68.6045 100.111 67.853 100.079C67.9564 99.6627 68.0588 99.2559 68.1986 98.7015C68.2089 98.7094 67.9769 98.5344 67.7859 98.3901C67.9303 98.2151 67.9746 98.0956 68.0986 98.0198C69.8473 96.9594 71.8382 96.326 74.5044 96.1217C76.1781 95.993 77.9189 96.0498 79.5129 95.8082C83.1377 95.2591 86.7852 95.5536 90.4179 95.4981C94.0279 95.4426 97.6447 95.4334 101.254 95.502C104.018 95.5555 106.585 96.0551 108.831 97.0456C108.568 97.2101 108.364 97.3375 108.142 97.4772C108.149 98.1393 109.066 98.2673 109.996 98.4651C109.821 98.5938 109.663 98.71 109.374 98.9216C109.824 99.0966 110.313 99.2866 110.687 99.4322C110.345 99.7952 110.119 100.034 109.806 100.365C109.402 100.483 108.806 100.658 108.214 100.831C105.91 100.075 103.408 100.688 100.925 100.412" fill="url(#paint6_linear)"/>
<path fill-rule="evenodd" clip-rule="evenodd" d="M148.652 3.07531C148.516 3.59899 148.431 3.92677 148.342 4.27285C147.192 3.76288 146.199 4.74559 144.82 4.00317C144.888 4.12658 144.777 3.92482 144.631 3.65971H142.569C142.264 3.87388 141.897 4.13181 141.374 4.49877C141.127 4.09524 141.001 3.88956 140.817 3.58984C140.306 3.60552 139.745 3.62249 139.012 3.64535C139.39 3.88564 139.584 4.01101 139.927 4.2304C139.025 4.27546 138.251 4.31398 137.519 4.3512C137.442 4.42825 137.349 4.48114 137.367 4.50987C137.401 4.56015 137.512 4.59149 137.573 4.63916C137.676 4.71817 137.765 4.80305 137.891 4.91275C135.235 5.40639 132.763 4.2415 129.914 4.78542C130.071 4.91471 130.24 5.05444 130.565 5.32281C129.718 5.32281 128.728 5.49454 128.279 5.28494C127.495 4.91928 126.635 4.91993 125.983 5.04857C123.301 5.57943 120.364 5.35546 117.729 6.05413C117.066 6.23043 116.062 5.98231 115.078 5.92027C114.496 6.47921 113.839 6.68032 111.803 6.7404C112.312 6.40086 112.698 6.14228 113.227 5.78968H111.465C111.345 5.41423 111.242 5.0884 111.129 4.7358C110.567 4.68552 109.998 4.63524 109.422 4.58366C109.689 3.92547 109.93 3.33192 110.212 2.63652C111.676 2.02208 113.623 1.72041 115.474 1.27443C116.698 0.979947 118.191 1.49709 119.119 0.746186C121.201 0.627347 123.298 0.560744 125.364 0.380526C132.482 -0.242402 139.648 0.177454 146.782 0.00115392C147.971 -0.0282295 149.126 0.517649 150.297 0.0338021C151.341 0.771652 152.96 0.156559 154.231 0.609064C155.238 0.967541 156.602 0.99823 158.075 1.21306C157.36 1.40568 156.94 1.51864 156.43 1.65577C156.802 2.4008 158.257 2.29893 158.931 2.75732C158.569 2.8422 158.215 2.92513 157.862 3.0074C158.082 3.23463 158.299 3.45991 158.522 3.68975C157.408 4.10503 156.34 4.24738 155.153 4.35904C154.007 4.46678 153.005 3.76353 151.922 4.28656C150.954 3.92873 149.986 3.5696 148.652 3.07531" fill="url(#paint7_linear)"/>
<path fill-rule="evenodd" clip-rule="evenodd" d="M124.416 21.3622C123.957 21.7879 123.754 21.9747 123.539 22.1738C124.275 22.4592 124.903 22.7027 125.541 22.9502C125.37 23.0684 125.251 23.152 125.037 23.3015C125.18 23.483 125.398 23.6959 125.511 23.9264C125.591 24.089 125.527 24.2744 125.527 24.5532C124.648 24.8248 123.719 25.1115 123.186 25.2767C121.62 25.4269 121.012 24.3639 119.731 24.9104C118.64 24.2404 117.621 24.9372 116.569 24.9515C113.679 24.992 110.785 25.0044 107.899 24.9443C106.857 24.9228 105.831 24.6629 104.737 24.5029C104.557 24.8039 104.434 25.0109 104.31 25.2173C103.484 25.7266 102.747 24.8039 101.7 25.2107C100.985 25.4876 99.7125 25.3616 98.7085 25.3035C97.7886 25.2506 96.8927 25.0482 95.609 24.8542C95.9819 25.2349 96.1354 25.3923 96.4868 25.7501C94.1377 25.4458 91.982 26.0185 89.7853 25.3642C88.9132 25.1043 87.6113 25.3211 86.4834 25.581C87.5067 25.6424 88.53 25.7037 89.5533 25.7651C89.5488 25.8219 89.5454 25.8794 89.542 25.9362H85.3191C85.061 25.7743 84.5392 25.4465 84.1207 25.184C84.3322 24.8869 84.5016 24.6485 84.7143 24.3475C84.2151 24.2888 83.932 24.2555 83.5079 24.2052C83.4249 23.927 83.3271 23.6012 83.2316 23.2825C82.8462 23.2042 82.488 23.1317 82.131 23.0599V22.1732C84.1719 22.1372 86.2526 22.1 88.3333 22.0628C88.3345 21.9799 88.3345 21.8976 88.3345 21.8153H83.0713C82.2845 21.1532 83.3828 20.7295 83.6239 20.753C84.9178 20.8809 85.8808 20.3436 87.0849 20.324C92.7824 20.2306 98.4765 20.0915 104.172 19.9838C105.719 19.9544 107.272 19.942 108.816 19.987C112.036 20.0798 115.273 20.1248 118.463 20.369C120.423 20.5185 122.308 20.9978 124.416 21.3622" fill="url(#paint8_linear)"/>
<path fill-rule="evenodd" clip-rule="evenodd" d="M40.4884 6.21262C39.1422 6.57371 38.12 6.8486 37.0922 7.12415C36.7272 6.9139 36.3622 6.7043 35.8563 6.41373C35.721 6.6377 35.6129 6.8153 35.4526 7.08041H32.6499C32.5669 6.89888 32.4941 6.73825 32.3657 6.45813C31.779 6.5613 31.5266 6.88843 30.999 7.1124H28.9592C28.8444 6.92631 28.7159 6.71997 28.4794 6.33799C28.2861 6.63508 28.1769 6.80028 28.045 7.00336C26.4874 7.38665 24.7796 7.58058 22.9501 7.53552C22.1133 7.51593 21.2583 7.73925 20.3964 7.85482C20.2031 7.75296 19.9848 7.63869 19.7779 7.52964C19.5403 7.64979 19.3151 7.76536 19.0013 7.92534C18.2532 7.70399 17.488 7.47741 16.9013 7.30372C15.961 7.40166 15.1219 7.48916 14.1622 7.58841C14.0258 7.33376 13.9167 7.13134 13.7848 6.88452C12.0474 6.81922 10.8513 6.13818 9.52441 5.57075C9.7882 5.41926 10.0065 5.2939 10.4442 5.04185H13.1674C13.1822 4.97525 13.1969 4.90865 13.2106 4.84139C12.1998 4.67162 11.1878 4.5012 9.94511 4.29225C10.4556 3.97883 10.7217 3.81689 11.0832 3.59554C13.6654 3.59554 16.3373 3.61904 19.0082 3.58574C20.3839 3.56811 21.8234 3.79665 23.1036 3.24881C23.7711 2.96281 24.4874 3.77118 25.123 3.35198C25.8449 2.87597 26.3327 3.85933 27.1548 3.36112C27.4925 3.15609 28.6181 3.41532 29.381 3.39899C30.3896 3.37875 31.3935 3.24881 32.3998 3.24685C39.116 3.23249 45.8369 3.31476 52.5475 3.20637C55.764 3.15544 58.9647 2.76562 62.2108 2.88315C63.5684 2.33597 65.0568 2.58671 66.586 2.51553C66.0346 3.57399 64.4519 3.05945 62.8442 3.50477C64.6804 3.56289 65.8561 3.60076 67.5513 3.65496C66.7827 3.89525 66.3757 4.02323 65.7947 4.2054C66.1267 4.45745 66.4371 4.66705 66.6929 4.89689C66.9294 5.10976 67.1068 5.34352 67.5411 5.82476C66.6736 5.5701 66.2927 5.45779 65.7003 5.2828C65.5013 5.5603 65.3342 5.79341 65.1568 6.04023C64.8453 5.93707 64.536 5.8352 64.096 5.68894C63.8333 5.79276 63.5161 5.91878 63.175 6.05395C63.0022 5.96449 62.7862 5.85087 62.569 5.73791C62.2086 5.9449 61.8425 6.1545 61.4331 6.38957C60.7998 6.20217 60.1495 6.00954 59.4377 5.79929C59.2865 5.97951 59.0943 6.20609 58.9056 6.4294C58.6816 6.43528 58.4792 6.4405 58.1859 6.44768C58.071 6.25767 57.9482 6.05525 57.7902 5.79276H56.262C56.1779 5.93184 56.0528 6.13883 55.847 6.48229C54.9795 6.36606 54.0858 6.24657 53.183 6.12512C53.0364 6.33603 52.8954 6.5404 52.6703 6.86362C52.2018 6.45487 51.8039 6.10749 51.4184 5.77056C51.0364 6.11337 50.6293 6.47837 50.3053 6.76894C48.6782 6.95504 48.0995 6.47119 47.7777 5.6354C47.2911 6.02522 46.9261 6.31709 46.4076 6.73238H43.8642C43.7948 6.61288 43.6754 6.40916 43.5265 6.15646H42.3304C42.6362 6.3641 42.8136 6.48621 42.9966 6.60962C42.5396 7.00662 41.7857 6.87211 40.4884 6.21262" fill="url(#paint9_linear)"/>
<path fill-rule="evenodd" clip-rule="evenodd" d="M190.87 120.717C190.543 121.106 190.216 121.494 189.752 122.048C189.54 121.686 189.448 121.53 189.266 121.221C188.663 121.018 187.303 121.221 186.973 120.583C186.806 120.26 187.146 119.85 187.274 119.423C186.734 119.282 185.951 119.078 184.955 118.818C185.111 117.909 185.272 116.957 185.461 115.852C185.504 115.88 185.304 115.75 184.852 115.456C185.614 115.537 186.089 115.588 186.763 115.658C186.827 115.345 186.913 114.932 187.038 114.324C188.527 113.956 190.162 113.493 191.869 113.144C193.614 112.789 195.634 112.825 197.242 112.429C199.092 111.973 201.158 112.758 202.749 111.883C202.954 111.992 203.176 112.109 203.396 112.226C205.607 111.569 207.964 111.99 210.796 111.821C210.289 112.148 210.089 112.278 209.892 112.405C210.084 112.529 210.275 112.652 210.703 112.929C208.789 112.859 207.1 113.215 205.516 112.573C203.743 113.085 201.892 113.39 199.85 113.303C197.457 113.2 195.252 113.638 192.711 114.224C193.544 114.584 194.109 114.828 194.738 115.1C194.869 114.88 194.992 114.673 195.113 114.467C195.294 114.432 195.471 114.382 195.658 114.365C197.015 114.233 198.378 114.534 199.79 114.054C200.798 113.711 202.397 114.269 203.519 113.653C203.573 113.624 203.719 113.653 203.823 113.65C206.733 113.531 209.642 113.386 212.556 113.309C213.411 113.287 214.407 113.078 215.13 113.616C215.251 113.705 215.763 113.705 216.01 113.64C218.854 112.899 221.848 113.475 224.75 113.296C225.057 113.277 225.37 113.294 225.692 113.294C226.048 113.501 226.409 113.712 226.873 113.983H230.524C230.988 114.22 231.29 114.376 231.667 114.569C231.223 114.657 230.864 114.729 230.317 114.838C230.973 115.082 231.547 115.297 232.379 115.608C231.248 116.077 230.253 116.49 229.322 116.877C227.636 116.578 226.259 115.535 224.399 116.479C223.924 115.83 223.479 115.154 221.763 115.515C221.725 115.651 221.68 115.812 221.634 115.979C222.069 116.1 222.468 116.21 222.916 116.334C222.662 116.404 222.496 116.462 222.316 116.497C221.203 116.717 220.332 115.654 218.995 116.372C218.164 116.816 216.782 116.519 215.597 116.776C214.09 117.102 212.207 116.855 209.775 116.855C210.901 116.553 211.313 116.442 212.126 116.224H208.755C208.941 116.506 209.119 116.775 209.368 117.153H205.634C204.841 117.386 204.428 117.508 203.734 117.712C204.099 117.401 205.313 116.718 205.51 116.657C204.32 116.139 203.54 116.893 202.411 116.954C202.635 117.116 202.795 117.234 203.128 117.477C201.759 117.632 200.488 117.797 199.204 117.918C198.172 118.015 197.399 118.283 196.769 118.877C196.212 118.784 195.627 118.686 194.942 118.572C193.524 119.198 192.114 119.823 190.704 120.447C190.759 120.538 190.814 120.627 190.87 120.717" fill="url(#paint10_linear)"/>
<path fill-rule="evenodd" clip-rule="evenodd" d="M56.9476 75.3765C57.2989 75.4764 57.6491 75.5769 57.9993 75.6775C57.9504 75.75 57.9027 75.8237 57.8538 75.8969C56.8464 75.8969 55.5957 75.6834 54.8885 75.9478C53.8981 76.3193 53.3148 75.81 52.5553 75.8956C51.5946 76.0027 50.6554 75.7937 49.6173 76.1385C48.6656 76.4545 47.2762 76.4336 46.3939 75.9641C45.4229 76.0693 44.5633 76.143 43.7208 76.258C42.9602 76.3618 42.2302 76.9952 41.457 76.2723C40.851 76.8567 40.1847 76.5538 39.523 76.3148C38.8158 76.8502 37.8118 76.5472 36.9443 76.5982C36.1268 76.6465 35.2843 76.5649 34.469 76.6191C33.307 76.6968 32.0961 76.751 31.0205 76.988C29.506 77.321 27.9438 77.3269 26.3645 77.4451C28.0927 77.8035 29.9858 77.8636 31.556 77.5809C32.6726 77.3798 33.7004 77.4026 34.7658 77.3243C36.3337 77.21 37.8141 76.8868 39.4684 76.9253C40.9192 76.9593 42.5338 77.3158 43.8914 76.6556C44.5588 76.9801 45.0341 77.0291 45.8914 76.6641C46.4394 76.4304 47.7185 76.5701 48.4951 76.7679C49.1307 76.9292 49.8072 76.4839 50.3734 76.9429C50.5474 77.0833 51.4331 77.0624 51.8561 76.9488C54.0857 76.3474 56.3256 76.5596 58.5985 76.7986C58.9589 76.8365 59.3944 76.6008 59.7742 76.621C62.2949 76.7568 64.8566 76.3096 67.3614 76.8313C67.765 76.9149 68.3574 76.6328 68.8702 76.6197C70.2107 76.5871 71.5603 76.6517 72.8974 76.5988C74.819 76.5224 76.6348 76.7072 78.8201 77.2537C77.4204 77.2968 76.4403 77.3275 75.4591 77.3582L75.3591 77.5286C75.624 77.5783 75.8832 77.6409 76.1538 77.6742C76.4369 77.7082 76.7291 77.7141 77.1021 77.7376C76.7837 78.1065 76.5097 78.4239 76.2345 78.7412C75.9799 78.6106 75.7559 78.495 75.4318 78.3292C75.0498 78.4467 74.6473 78.5708 73.9878 78.7738C74.1368 78.26 74.255 77.8545 74.404 77.3458C74.3346 77.306 74.0424 77.1382 73.7923 76.9945C72.4279 77.1519 71.0998 77.306 69.7002 77.4673C69.9913 77.6475 70.2528 77.8088 70.4984 77.9602C70.9884 77.8486 71.4603 77.7402 71.898 77.6403C72.7951 78.5035 71.2067 78.3024 70.8372 78.6041C71.0737 78.8855 71.2681 79.116 71.5978 79.5071C71.0589 79.4216 70.4597 79.3955 70.4336 79.3112C70.1823 78.4996 69.3761 78.2567 68.0584 78.4461C67.9185 78.6537 67.7809 78.8574 67.483 79.2969C67.0385 78.7079 66.7247 78.292 66.3358 77.7774C67.2488 77.701 67.8185 77.6534 68.387 77.6063C68.3926 77.5339 68.3983 77.4607 68.4051 77.3889C67.4887 77.3589 66.5712 77.3288 65.4433 77.2929C65.5558 77.4882 65.624 77.6076 65.7718 77.8649C65.6263 78.0582 65.3819 78.3808 65.0965 78.7595C63.6013 78.6524 62.0175 78.9567 60.2267 78.3951C60.5166 78.8111 60.7065 79.082 60.9305 79.4046H59.3159C59.0067 78.8875 58.6644 78.3155 58.3029 77.7102H57.3842C57.6195 78.0268 57.8185 78.2952 58.0266 78.576C56.8589 78.7445 55.839 78.892 54.5712 79.0749C54.2392 78.9116 53.7333 78.6635 53.2216 78.4114C52.8396 78.877 52.4735 79.3243 52.0653 79.8232C51.8481 79.5678 51.6571 79.3432 51.4615 79.114C50.5713 80.0941 49.1796 80.3155 47.3751 80.0876C47.673 79.797 47.9061 79.5692 48.3052 79.1787C47.2569 79.1447 46.4951 79.1186 45.6151 79.0899V80.1261C43.0932 80.307 40.652 80.4813 38.1938 80.6576C38.0881 80.8366 37.9642 81.0435 37.7823 81.3491C36.0063 80.591 34.029 80.9867 32.1359 80.8627C31.9494 80.642 31.7573 80.4167 31.5071 80.1229C31.3252 80.4069 31.1933 80.6126 31.0603 80.8196C30.6589 80.7053 30.2587 80.591 29.6163 80.4076C29.4946 80.817 29.4003 81.1297 29.3639 81.2531C28.3315 81.9172 27.4742 82.4683 26.5487 83.0638C26.3645 82.7811 26.2303 82.5754 26.0779 82.3403C25.6595 82.6936 25.2536 83.037 24.8318 83.3942C23.8915 82.6446 23.1502 81.9257 24.5862 81.1683C24.1792 80.9227 23.8995 80.7536 23.6027 80.5754C23.2923 80.6779 22.9842 80.7797 22.4873 80.9449C22.178 80.7922 21.8131 80.6119 21.3207 80.369C21.4765 79.291 20.8955 78.1248 22.0916 77.0872C24.468 76.1737 27.315 76.2971 29.9074 75.874C32.7067 75.417 35.5219 75.5841 38.3382 75.543C39.0466 75.5325 39.6697 75.5423 40.3007 75.2158C40.643 75.0382 41.5241 75.1166 42.0995 75.208C42.4883 75.2694 42.7362 75.6918 43.2069 75.2674C44.5827 75.5364 45.8857 75.0598 47.2865 75.1577C48.9158 75.2713 50.5872 75.1838 52.2392 75.1838H56.8884C56.9078 75.2485 56.9282 75.3118 56.9476 75.3765" fill="url(#paint11_linear)"/>
<path fill-rule="evenodd" clip-rule="evenodd" d="M111.819 51.8583V51.0427C111.197 50.9879 110.629 50.9382 109.806 50.8658C110.194 50.4864 110.477 50.2102 110.565 50.1253C112.382 49.2745 114.028 51.1478 115.211 49.9999C116.488 50.1018 117.437 50.2402 118.386 50.2428C126.233 50.2605 134.079 50.2108 141.925 50.2735C145.036 50.299 148.142 50.5582 151.46 50.7215L152.13 51.1067C152.012 51.1779 151.895 51.3117 151.776 51.3124C149.298 51.3248 146.821 51.3189 144.342 51.3235C143.862 51.3248 143.381 51.3529 142.899 51.4763C144.058 51.7603 145.265 51.6565 146.449 51.6735C147.687 51.6911 148.938 51.6173 150.162 51.695C151.272 51.7662 152.351 51.9875 153.785 52.1913C153.051 52.3415 152.692 52.4152 152.033 52.5504C152.607 52.6888 152.97 52.777 153.396 52.8802C153.413 53.093 153.431 53.3222 153.451 53.5716C152.902 53.7701 152.39 54.0437 151.787 54.1495C151.221 54.2488 150.556 54.1991 149.942 54.1645C148.692 54.0947 147.346 54.4068 146.21 53.8674C145.063 54.476 143.673 54.0979 142.4 54.1573C141.067 54.2187 139.718 54.1704 138.173 54.1704C137.895 54.3865 137.531 54.6706 137.129 54.9847C136.34 54.8501 135.704 54.7411 134.693 54.5681C134.629 54.5922 134.215 54.871 133.83 54.858C132.656 54.8181 131.479 55.0408 130.285 54.6307C129.069 54.2135 127.641 54.7078 126.222 54.5844C123.819 54.3748 121.321 54.5269 118.919 54.5269C118.739 54.8188 118.613 55.0251 118.463 55.2693C118.136 55.2184 117.787 55.2223 117.603 55.1244C116.863 54.7293 116.22 54.2161 114.972 54.6993C115.411 54.8188 115.815 54.9292 116.323 55.0682C114.725 55.4855 113.386 55.1446 111.956 54.7751C111.916 54.523 111.873 54.2422 111.829 53.9621C111.464 53.7519 111.099 53.5423 110.686 53.3052C110.853 53.1884 111.022 53.0689 111.289 52.8815C110.662 52.6523 110.034 52.4224 109.26 52.1397C109.583 51.8668 109.907 51.5925 110.21 51.3359C110.682 51.4893 111.085 51.6199 111.819 51.8583" fill="url(#paint12_linear)"/>
<path fill-rule="evenodd" clip-rule="evenodd" d="M60.9205 56.9034C60.5646 56.9811 60.2076 57.0588 59.6755 57.175C60.0461 57.4062 60.344 57.591 60.6408 57.7764C60.9535 57.5968 61.099 57.5132 61.3162 57.3885C61.6561 57.7646 61.9836 58.127 62.2872 58.462C61.9938 58.7918 61.7335 59.0843 61.4412 59.414C60.6215 59.5544 59.7005 59.8469 58.7829 59.843C56.3736 59.8332 54.1212 60.099 51.8381 60.541C50.5851 60.7839 49.049 60.4653 47.7824 60.938C45.3367 60.7089 43.0366 61.3997 40.6034 61.3083C40.0076 61.2861 39.2674 61.6041 38.8137 61.4865C37.961 61.2645 37.5039 61.7921 36.7171 61.6772C36.0997 61.5864 35.2618 61.4911 34.774 61.9462C32.1771 61.8914 29.8314 62.5894 27.2857 62.7618C25.1276 62.9074 23.0458 63.4284 21.1993 63.7386C20.6058 64.2159 20.1703 64.5672 19.6939 64.9505C19.2903 64.8127 18.9515 64.7631 18.8173 64.6404C18.2613 64.1297 17.769 63.5982 17.2437 63.0647H15.7599C15.8645 62.6279 15.9611 62.2218 16.0953 61.6583C16.1146 61.672 15.8736 61.5048 15.6985 61.3834C16.3307 60.2087 18.1612 60.0592 19.5427 59.9246C21.9543 59.6889 24.2522 59.2064 26.7467 59.0915C29.4608 58.9648 32.185 58.6226 34.8945 58.3673C36.4772 58.2184 38.0395 58.0859 39.6142 58.1133C40.4954 58.129 41.1025 57.8325 41.8439 57.7548C42.7432 57.6602 43.696 57.7333 44.625 57.732C45.4482 57.73 46.7785 57.8972 46.9968 57.6863C47.5812 57.1228 48.4635 57.969 48.8796 57.4342C48.9399 57.3565 49.4424 57.3918 49.7403 57.3761C51.2139 57.2997 52.6568 57.4506 54.169 57.0712C55.4538 56.7486 57.1036 57.192 58.5533 56.697C59.1445 56.4953 60.1189 56.6637 60.9194 56.6637C60.9205 56.7434 60.9205 56.8231 60.9205 56.9034" fill="url(#paint13_linear)"/>
<path fill-rule="evenodd" clip-rule="evenodd" d="M204.67 96.5142H202.545V95.3434C202.162 95.1358 201.893 94.9471 201.553 94.8191C201.327 94.7336 201.001 94.7362 200.647 94.6898V92.4782C201.667 91.0829 203.855 90.2118 206.176 89.4348C209.162 88.4357 212.346 87.6228 215.631 87.0867C218.034 86.6949 220.517 86.3456 223.065 86.1523C225.163 85.9937 227.297 86.0629 229.318 85.8187C231.101 85.6025 232.797 85.4837 234.622 85.5405V86.2392H231.018C231.013 86.3227 231.01 86.4063 231.005 86.4899H235.098C234.905 86.9829 234.905 86.9829 234.67 87.1298C235.098 87.2473 235.521 87.3629 236.165 87.5399C235.526 87.9754 234.959 88.362 234.664 88.5624C232.328 88.9744 230.233 88.9242 228.279 89.3558C226.994 89.6405 225.427 89.1233 224.249 89.7867C219.772 90.1067 215.843 91.2912 211.867 92.3921C210.829 92.6787 209.894 93.0907 208.861 93.3839C206.868 93.9481 205.607 94.7878 205.371 96.0944C205.346 96.2321 204.959 96.3477 204.67 96.5142" fill="url(#paint14_linear)"/>
<path fill-rule="evenodd" clip-rule="evenodd" d="M255.06 147.129C255.108 147.385 255.128 147.497 255.171 147.737C253.564 148.004 251.817 147.712 250.196 148.124C250.962 148.148 251.728 148.183 252.496 148.195C253.309 148.207 254.122 148.197 254.852 148.197C255.21 148.415 255.479 148.578 255.803 148.775C255.379 148.862 255.02 148.937 254.366 149.071C254.938 149.21 255.302 149.298 255.893 149.443C255.681 149.836 255.461 150.242 255.236 150.657C252.644 150.841 250.286 151.007 247.797 151.183C247.771 151.257 247.713 151.42 247.605 151.724C246.354 151.62 245.05 151.466 243.733 151.415C242.292 151.36 240.842 151.403 239.362 151.403C238.937 151.635 238.496 151.877 238.057 152.117C236.98 152.159 236.012 151.825 234.809 152.056C233.986 152.215 232.838 151.819 231.639 151.954C232.017 152.067 232.397 152.181 233.15 152.407H228.94C228.304 152.747 227.803 153.016 227.151 153.364C226.496 152.906 225.988 152.549 225.549 152.243C225.276 151.803 225.018 151.388 224.758 150.971C224.94 150.802 225.124 150.63 225.395 150.378H223.243C222.455 149.748 222.987 149.347 223.731 148.966C224.476 148.918 225.237 148.869 225.999 148.821L225.995 148.618C225.222 148.583 224.448 148.547 223.569 148.506C223.569 148.31 223.45 148.088 223.589 147.998C224.565 147.369 225.784 147.113 227.289 147.117C236.48 147.142 245.672 147.129 255.06 147.129" fill="url(#paint15_linear)"/>
<path fill-rule="evenodd" clip-rule="evenodd" d="M114.247 80.4331C114.418 79.7266 114.554 79.1748 114.753 78.3599C114.876 78.3064 115.428 78.0661 116.318 77.6782C120.826 76.988 125.934 77.4314 130.996 77.3276C132.075 77.306 133.091 77.3753 134.179 77.624C135.248 77.8682 136.647 77.5862 137.848 77.705C138.854 77.8056 139.759 78.196 140.754 78.3776C141.765 78.5617 142.908 78.5506 143.853 78.8013C144.876 79.073 145.737 79.5477 146.697 79.9447C146.399 80.1157 146.253 80.1993 146.174 80.245C146.734 80.8875 147.279 81.5098 147.834 82.1458C147.342 82.4201 146.829 82.708 146.152 83.0874C143.705 82.678 140.971 82.55 138.592 81.6176C137.53 81.8415 136.415 82.3136 135.131 81.6437C134.884 81.5157 134.021 81.7064 133.507 81.8357C132.659 82.0505 131.953 82.0622 131.394 81.5314C129.993 81.8925 128.764 82.0368 127.154 81.7318C125.494 81.4178 123.513 81.6626 121.617 81.6626C120.529 82.1164 119.346 82.6107 118.091 83.1351C117.107 82.6133 115.99 82.3091 116.17 81.4145C116.225 81.1513 115.688 80.8236 115.328 80.5702C115.187 80.4716 114.787 80.4951 114.247 80.4331" fill="url(#paint16_linear)"/>
<path fill-rule="evenodd" clip-rule="evenodd" d="M207.96 67.861C207.714 68.066 207.496 68.2475 207.127 68.5564C207.709 68.6941 208.112 68.7895 208.574 68.8985V70.4709C207.914 70.7059 207.254 70.9423 206.56 71.1904C205 70.8979 203.405 70.6001 201.559 70.2547C200.996 70.3631 200.21 70.9305 199.185 70.3207C198.966 70.1907 198.439 70.211 198.051 70.2012C191.546 70.0445 185.041 69.8936 178.314 69.7363C177.254 68.7849 176.804 67.4607 174.211 66.4519C176.123 66.3324 177.147 66.269 178.172 66.205C178.181 66.1469 178.19 66.0888 178.2 66.03C177.4 65.9634 176.598 65.8962 175.554 65.8087C175.934 65.4424 176.219 65.1662 176.583 64.8155C177.625 65.018 178.782 64.5615 179.737 65.1564C179.887 65.2504 180.314 65.2041 180.613 65.2106C183.113 65.2635 185.602 65.3392 188.101 65.4796C190.78 65.6291 193.529 65.7284 196.161 65.9811C200.186 66.367 204.342 66.6556 207.96 67.861" fill="url(#paint17_linear)"/>
<path fill-rule="evenodd" clip-rule="evenodd" d="M102.903 65.8664C102.535 66.1439 102.164 66.4234 101.885 66.6323H97.3988C95.1464 65.8461 95.4147 64.2503 93.4056 63.0952H96.2481C96.2697 63.0129 96.2914 62.9306 96.3118 62.8477C95.824 62.7922 95.3363 62.7367 94.6222 62.6558C94.587 62.407 94.5426 62.087 94.4812 61.6502C98.0082 61.6502 101.44 61.4367 104.738 61.7246C106.947 61.9179 109.135 61.8487 111.296 62.0296C113.582 62.2209 115.823 62.5924 118.08 62.8954C120.016 63.1559 121.94 63.4413 123.874 63.9858C123.586 64.2692 123.394 64.4586 123.195 64.6545C123.729 64.8647 124.331 65.1018 124.943 65.342C124.691 65.5033 124.497 65.6294 124.333 65.7338C124.566 65.9167 124.791 66.0956 125.144 66.3724C124.419 66.6858 123.774 66.964 122.777 67.3956C122.058 67.267 120.872 67.0541 119.686 66.8419C117.072 66.3914 114.09 67.137 111.731 66.0342C111.141 66.1217 110.587 66.2934 110.076 66.2588C109.31 66.2059 108.588 65.5438 107.817 66.2608C107.141 65.6437 106.532 66.185 105.834 66.2333C104.936 66.2947 103.966 66.0159 102.903 65.8664" fill="url(#paint18_linear)"/>
<path fill-rule="evenodd" clip-rule="evenodd" d="M39.9756 106.392C39.564 106.475 39.2047 106.548 38.6192 106.668C40.9216 106.991 40.5793 108.145 41.2854 108.947C40.6908 109.467 40.1643 109.928 39.5526 110.462C38.4668 110.371 37.6766 109.979 37.132 109.397C36.908 109.511 36.6828 109.626 36.5464 109.697C35.4264 109.543 34.3906 109.401 33.1138 109.227C32.8932 109.011 32.5476 108.671 32.0905 108.223C30.7147 108.485 29.2571 108.745 27.821 109.041C26.476 109.318 25.1559 109.634 23.8233 109.933V110.285C24.2418 110.401 24.6602 110.516 25.1514 110.652C25.0149 110.832 24.8546 111.12 24.7943 111.113C23.6607 110.984 24.0337 111.679 23.5027 111.871C23.3617 111.786 23.2196 111.701 23.0024 111.57C22.6431 111.675 22.2634 111.788 21.6699 111.962C21.4709 111.685 21.3037 111.453 21.1025 111.172C20.8785 111.274 20.6738 111.368 20.2327 111.569C19.8597 111.052 19.6539 110.508 19.1252 110.104C18.5681 109.679 17.837 109.353 18.3021 108.759C17.5039 108.678 16.9354 108.62 16.3498 108.56C17.0684 107.367 17.0684 107.367 16.2532 106.322C17.4482 105.922 18.6352 105.234 19.9109 105.174C21.4095 105.105 22.8592 104.367 24.6454 104.934C24.3213 105.229 24.0655 105.462 23.7563 105.744H21.0786C20.6545 106.05 20.2964 106.309 19.9564 106.555C20.2145 106.711 20.3339 106.783 20.4533 106.855C20.5988 106.772 20.7341 106.623 20.8933 106.614C23.7153 106.456 26.5396 106.303 29.3674 106.187C29.6891 106.173 30.0371 106.381 30.3099 106.467C30.8125 106.318 31.3264 106.167 31.8574 106.01C29.9325 105.263 27.9109 105.274 25.7506 105.737C25.7506 105.442 25.7506 105.162 25.7506 104.883C25.8222 104.841 25.895 104.762 25.9689 104.762C28.4453 104.751 31.0831 104.443 33.3548 104.833C35.5504 105.211 38.2439 105.159 39.9756 106.392" fill="url(#paint19_linear)"/>
<path fill-rule="evenodd" clip-rule="evenodd" d="M54.7049 158.617C54.2785 158.474 53.4405 158.362 53.1904 158.079C52.3797 157.155 51.7043 156.184 51.1506 155.2C50.9675 154.876 51.3143 154.455 51.4587 153.935C51.5088 153.967 51.3177 153.844 51.054 153.673C51.7885 153.4 52.5184 153.129 53.2381 152.861H75.0595C75.3688 153.053 75.6314 153.213 76.0191 153.452C75.3005 153.514 74.732 153.563 73.8747 153.637C74.9287 153.887 75.7428 154.081 77.1641 154.418C75.8986 154.564 75.2892 154.635 74.6786 154.706C74.6763 154.76 74.6741 154.814 74.6729 154.868C75.2209 154.918 75.769 154.967 76.3216 155.017C76.8651 155.588 76.4739 156.007 75.6519 156.358C70.2864 156.323 64.9629 156.996 59.5735 156.746C59.3689 156.737 59.1619 156.745 58.9561 156.745C57.6247 157.332 56.2933 157.918 54.7049 158.617" fill="url(#paint20_linear)"/>
<path fill-rule="evenodd" clip-rule="evenodd" d="M233.515 48.3103C235.083 48.1771 236.419 47.9917 237.762 47.9701C239.001 47.9492 240.164 47.6769 241.554 48.0517C242.718 48.3652 244.341 48.1157 245.794 47.944C244.772 47.7259 243.749 47.5078 242.578 47.2577C243.821 46.8875 244.719 47.1141 245.763 47.3668C246.589 47.5666 247.798 47.2355 248.266 48.0439C247.68 48.0922 247.112 48.1392 246.403 48.1974C246.678 48.3828 246.815 48.5375 247.033 48.6107C247.696 48.832 248.391 49.0214 249.079 49.2251C249.354 49.0958 249.583 48.9881 249.824 48.8751C250.516 49.0038 250.737 49.3955 250.714 50.4827C248.118 50.6257 246.876 50.4475 244.02 49.5007C243.668 49.6195 243.257 49.7586 242.791 49.916C242.401 49.7932 241.983 49.662 241.438 49.4909C241.164 49.6091 240.857 49.7423 240.545 49.8768C239.737 49.7743 238.896 49.6672 238.055 49.5607C237.495 50.2705 236.35 49.0214 235.593 49.8265C235.313 50.1243 234.009 50.1053 233.132 50.2366C232.949 50.1393 232.726 50.0191 232.456 49.8748C232.349 50.0381 232.248 50.1915 232.036 50.5108C231.321 50.6643 230.376 50.8673 229.116 51.137V49.5999C228.414 49.5562 227.925 49.5255 227.322 49.4883C227.836 49.2976 228.295 49.1272 228.617 49.007C228.18 48.4879 227.988 48.2587 227.68 47.8918C229.621 47.6352 231.439 47.3949 233.311 47.1467C233.511 47.2682 233.776 47.4308 234.167 47.6704C233.455 47.7324 232.887 47.7821 231.938 47.8656C232.697 48.0792 233.146 48.2065 233.515 48.3103" fill="url(#paint21_linear)"/>
<path fill-rule="evenodd" clip-rule="evenodd" d="M280.662 97.5111C280.152 97.6495 279.771 97.7527 278.913 97.9851C280.304 98.0302 281.237 98.0609 282.347 98.0968C282.097 97.7455 281.906 97.4765 281.684 97.1669C282.785 97.0207 283.771 96.8894 284.999 96.7262C284.832 97.0128 284.692 97.2512 284.481 97.609C284.621 97.6403 284.903 97.7024 285.287 97.7873C285.484 98.0073 285.745 98.3005 286.004 98.5904C284.563 98.9535 283.028 99.3394 281.857 99.6338C279.444 99.9864 277.385 100.287 275.249 100.599C275.119 100.376 275 100.171 274.88 99.9675C274.1 99.7651 273.322 99.5627 272.31 99.2989C273.533 99.039 274.568 98.8189 276 98.514C274.84 98.4585 274.07 98.4213 273.299 98.3841C273.209 98.322 273.118 98.26 273.028 98.1986C273.422 98.1549 273.815 98.1118 274.207 98.0687C276.085 97.9525 278.162 96.9913 280.662 97.5111" fill="url(#paint22_linear)"/>
<defs>
<linearGradient id="paint0_linear" x1="168.798" y1="136.36" x2="170.845" y2="122.372" gradientUnits="userSpaceOnUse">
<stop stop-color="#EC008C"/>
<stop offset="1" stop-color="#FCA667"/>
</linearGradient>
<linearGradient id="paint1_linear" x1="65.3698" y1="129.432" x2="67.0084" y2="117.063" gradientUnits="userSpaceOnUse">
<stop stop-color="#EC008C"/>
<stop offset="1" stop-color="#FCA667"/>
</linearGradient>
<linearGradient id="paint2_linear" x1="11.8554" y1="39.5864" x2="12.7235" y2="30.1627" gradientUnits="userSpaceOnUse">
<stop stop-color="#EC008C"/>
<stop offset="1" stop-color="#FCA667"/>
</linearGradient>
<linearGradient id="paint3_linear" x1="119.161" y1="153.171" x2="120.622" y2="142.981" gradientUnits="userSpaceOnUse">
<stop stop-color="#EC008C"/>
<stop offset="1" stop-color="#FCA667"/>
</linearGradient>
<linearGradient id="paint4_linear" x1="173.624" y1="41.9733" x2="176.738" y2="28.4205" gradientUnits="userSpaceOnUse">
<stop stop-color="#EC008C"/>
<stop offset="1" stop-color="#FCA667"/>
</linearGradient>
<linearGradient id="paint5_linear" x1="139.055" y1="103.604" x2="140.564" y2="93.5183" gradientUnits="userSpaceOnUse">
<stop stop-color="#EC008C"/>
<stop offset="1" stop-color="#FCA667"/>
</linearGradient>
<linearGradient id="paint6_linear" x1="74.8141" y1="102.527" x2="76.2439" y2="92.9186" gradientUnits="userSpaceOnUse">
<stop stop-color="#EC008C"/>
<stop offset="1" stop-color="#FCA667"/>
</linearGradient>
<linearGradient id="paint7_linear" x1="117.532" y1="6.71788" x2="118.658" y2="-2.47167" gradientUnits="userSpaceOnUse">
<stop stop-color="#EC008C"/>
<stop offset="1" stop-color="#FCA667"/>
</linearGradient>
<linearGradient id="paint8_linear" x1="89.2441" y1="25.9162" x2="90.2534" y2="17.7677" gradientUnits="userSpaceOnUse">
<stop stop-color="#EC008C"/>
<stop offset="1" stop-color="#FCA667"/>
</linearGradient>
<linearGradient id="paint9_linear" x1="19.0305" y1="7.90727" x2="19.6539" y2="0.473451" gradientUnits="userSpaceOnUse">
<stop stop-color="#EC008C"/>
<stop offset="1" stop-color="#FCA667"/>
</linearGradient>
<linearGradient id="paint10_linear" x1="192.638" y1="122.014" x2="195.278" y2="108.372" gradientUnits="userSpaceOnUse">
<stop stop-color="#EC008C"/>
<stop offset="1" stop-color="#FCA667"/>
</linearGradient>
<linearGradient id="paint11_linear" x1="30.7335" y1="83.3665" x2="32.1946" y2="72.0913" gradientUnits="userSpaceOnUse">
<stop stop-color="#EC008C"/>
<stop offset="1" stop-color="#FCA667"/>
</linearGradient>
<linearGradient id="paint12_linear" x1="116.554" y1="55.2514" x2="117.352" y2="47.902" gradientUnits="userSpaceOnUse">
<stop stop-color="#EC008C"/>
<stop offset="1" stop-color="#FCA667"/>
</linearGradient>
<linearGradient id="paint13_linear" x1="23.3307" y1="64.9226" x2="25.1475" y2="53.6572" gradientUnits="userSpaceOnUse">
<stop stop-color="#EC008C"/>
<stop offset="1" stop-color="#FCA667"/>
</linearGradient>
<linearGradient id="paint14_linear" x1="206.466" y1="96.4775" x2="210.393" y2="82.3653" gradientUnits="userSpaceOnUse">
<stop stop-color="#EC008C"/>
<stop offset="1" stop-color="#FCA667"/>
</linearGradient>
<linearGradient id="paint15_linear" x1="228.266" y1="153.343" x2="229.695" y2="144.941" gradientUnits="userSpaceOnUse">
<stop stop-color="#EC008C"/>
<stop offset="1" stop-color="#FCA667"/>
</linearGradient>
<linearGradient id="paint16_linear" x1="119.749" y1="83.1155" x2="120.988" y2="75.2099" gradientUnits="userSpaceOnUse">
<stop stop-color="#EC008C"/>
<stop offset="1" stop-color="#FCA667"/>
</linearGradient>
<linearGradient id="paint17_linear" x1="179.841" y1="71.1691" x2="181.273" y2="62.5866" gradientUnits="userSpaceOnUse">
<stop stop-color="#EC008C"/>
<stop offset="1" stop-color="#FCA667"/>
</linearGradient>
<linearGradient id="paint18_linear" x1="98.6051" y1="67.3762" x2="99.899" y2="59.5337" gradientUnits="userSpaceOnUse">
<stop stop-color="#EC008C"/>
<stop offset="1" stop-color="#FCA667"/>
</linearGradient>
<linearGradient id="paint19_linear" x1="20.354" y1="111.938" x2="22.8498" y2="102.457" gradientUnits="userSpaceOnUse">
<stop stop-color="#EC008C"/>
<stop offset="1" stop-color="#FCA667"/>
</linearGradient>
<linearGradient id="paint20_linear" x1="55.3314" y1="158.598" x2="56.851" y2="150.934" gradientUnits="userSpaceOnUse">
<stop stop-color="#EC008C"/>
<stop offset="1" stop-color="#FCA667"/>
</linearGradient>
<linearGradient id="paint21_linear" x1="231.154" y1="51.1234" x2="232.016" y2="45.6207" gradientUnits="userSpaceOnUse">
<stop stop-color="#EC008C"/>
<stop offset="1" stop-color="#FCA667"/>
</linearGradient>
<linearGradient id="paint22_linear" x1="274.553" y1="100.586" x2="275.833" y2="95.5526" gradientUnits="userSpaceOnUse">
<stop stop-color="#EC008C"/>
<stop offset="1" stop-color="#FCA667"/>
</linearGradient>
</defs>
</svg>
